<svg width="26" height="26" viewBox="0 0 26 26" fill="none" xmlns="http://www.w3.org/2000/svg">
<path d="M6.22461 6.68237L19.7652 20.0157" stroke="white" stroke-miterlimit="10"/>
<path d="M12.9949 9.18237C11.4201 9.18147 9.86912 9.56084 8.4778 10.2873C7.08648 11.0137 5.89729 12.065 5.0144 13.349C5.89763 14.6329 7.08685 15.6841 8.47807 16.4107C9.86928 17.1374 11.4201 17.5173 12.9949 17.5173C14.5697 17.5173 16.1205 17.1374 17.5118 16.4107C18.903 15.6841 20.0922 14.6329 20.9754 13.349C20.0925 12.065 18.9033 11.0137 17.512 10.2873C16.1207 9.56084 14.5697 9.18147 12.9949 9.18237V9.18237ZM12.9949 15.849C12.4928 15.849 12.0019 15.7024 11.5844 15.4277C11.1669 15.153 10.8415 14.7625 10.6493 14.3057C10.4571 13.8489 10.4069 13.3463 10.5048 12.8613C10.6028 12.3764 10.8446 11.9309 11.1997 11.5813C11.5547 11.2316 12.0071 10.9935 12.4996 10.8971C12.9921 10.8006 13.5026 10.8501 13.9665 11.0393C14.4304 11.2286 14.8269 11.549 15.1059 11.9601C15.3849 12.3712 15.5338 12.8546 15.5338 13.349C15.5338 14.0121 15.2663 14.6479 14.7902 15.1168C14.314 15.5856 13.6683 15.849 12.9949 15.849Z" stroke="white" stroke-miterlimit="10"/>
</svg>
