<svg width="18" height="11" viewBox="0 0 18 11" fill="none" xmlns="http://www.w3.org/2000/svg">
<path d="M8.99491 1.18237C7.42011 1.18147 5.86912 1.56084 4.4778 2.28726C3.08648 3.01367 1.89729 4.06496 1.0144 5.34902C1.89763 6.63287 3.08685 7.68409 4.47806 8.41073C5.86928 9.13736 7.4201 9.5173 8.99491 9.5173C10.5697 9.5173 12.1205 9.13736 13.5118 8.41073C14.903 7.68409 16.0922 6.63287 16.9754 5.34902C16.0925 4.06496 14.9033 3.01367 13.512 2.28726C12.1207 1.56084 10.5697 1.18147 8.99491 1.18237V1.18237ZM8.99491 7.84901C8.49277 7.84901 8.0019 7.70239 7.58439 7.42769C7.16688 7.15299 6.84146 6.76254 6.6493 6.30573C6.45714 5.84892 6.40686 5.34625 6.50483 4.8613C6.60279 4.37635 6.84459 3.93089 7.19966 3.58126C7.55473 3.23163 8.00711 2.99353 8.4996 2.89707C8.99209 2.80061 9.50257 2.85012 9.96649 3.03933C10.4304 3.22855 10.8269 3.54898 11.1059 3.9601C11.3849 4.37122 11.5338 4.85457 11.5338 5.34902C11.5338 6.01206 11.2663 6.64795 10.7902 7.11678C10.314 7.58562 9.66826 7.84901 8.99491 7.84901Z" stroke="#442671" stroke-miterlimit="10"/>
</svg>
