<svg width="21" height="20" viewBox="0 0 21 20" fill="none" xmlns="http://www.w3.org/2000/svg">
<g clip-path="url(#clip0_13416_2167)">
<path d="M20.1083 10.0002C20.1083 4.48426 15.6368 0.0126953 10.1208 0.0126953C4.60486 0.0126953 0.133301 4.48426 0.133301 10.0002C0.133301 14.9853 3.78559 19.1172 8.56027 19.8664V12.8872H6.02438V10.0002H8.56027V7.79985C8.56027 5.29671 10.0513 3.91408 12.3327 3.91408C13.4254 3.91408 14.5684 4.10914 14.5684 4.10914V6.56701H13.309C12.0683 6.56701 11.6814 7.33689 11.6814 8.12673V10.0002H14.4514L14.0085 12.8872H11.6814V19.8664C16.4561 19.1172 20.1083 14.9853 20.1083 10.0002Z" fill="#442671"/>
</g>
<defs>
<clipPath id="clip0_13416_2167">
<rect width="20" height="20" fill="white" transform="translate(0.120605)"/>
</clipPath>
</defs>
</svg>
