<svg width="24" height="25" viewBox="0 0 24 25" fill="none" xmlns="http://www.w3.org/2000/svg">
<g clip-path="url(#clip0)">
<path d="M24.0005 12.5241C24.0005 11.6919 23.933 10.8551 23.7891 10.0364H12.2412V14.7509H18.8541C18.5797 16.2714 17.698 17.6165 16.4069 18.4712V21.5303H20.3522C22.6689 19.398 24.0005 16.2489 24.0005 12.5241Z" fill="#4285F4"/>
<path d="M12.2404 24.4859C15.5424 24.4859 18.327 23.4017 20.3559 21.5303L16.4106 18.4713C15.3129 19.218 13.8959 19.6409 12.2449 19.6409C9.05088 19.6409 6.34273 17.4861 5.37103 14.589H1.2998V17.7425C3.37816 21.8767 7.61133 24.4859 12.2404 24.4859Z" fill="#34A853"/>
<path d="M5.36614 14.589C4.8533 13.0684 4.8533 11.422 5.36614 9.90144V6.74792H1.29941C-0.437044 10.2073 -0.437044 14.2831 1.29941 17.7425L5.36614 14.589Z" fill="#FBBC04"/>
<path d="M12.2404 4.84496C13.9858 4.81796 15.6728 5.47476 16.9369 6.68038L20.4323 3.18498C18.219 1.10662 15.2814 -0.0360182 12.2404 -2.94559e-05C7.61133 -2.94559e-05 3.37816 2.60915 1.2998 6.74786L5.36653 9.90138C6.33373 6.99978 9.04638 4.84496 12.2404 4.84496Z" fill="#EA4335"/>
</g>
<defs>
<clipPath id="clip0">
<rect width="24" height="24.4858" fill="white"/>
</clipPath>
</defs>
</svg>
