<svg width="20" height="21" viewBox="0 0 20 21" fill="none" xmlns="http://www.w3.org/2000/svg">
<path fill-rule="evenodd" clip-rule="evenodd" d="M10 19.2002C14.9706 19.2002 19 15.1708 19 10.2002C19 5.22963 14.9706 1.2002 10 1.2002C5.02944 1.2002 1 5.22963 1 10.2002C1 15.1708 5.02944 19.2002 10 19.2002ZM10 20.2002C15.5228 20.2002 20 15.723 20 10.2002C20 4.67735 15.5228 0.200195 10 0.200195C4.47715 0.200195 0 4.67735 0 10.2002C0 15.723 4.47715 20.2002 10 20.2002ZM10.5312 15.2002H9.53125V10.7109L4.90721 10.7197L4.90529 9.71973L9.53125 9.71086V5.2002H10.5312V9.70894L15.0928 9.7002L15.0947 10.7002L10.5312 10.7089V15.2002Z" fill="#442671"/>
</svg>
