<svg width="26" height="26" viewBox="0 0 26 26" fill="none" xmlns="http://www.w3.org/2000/svg">
    <path d="M12.9937 0.5C6.10366 0.5 0.5 6.10507 0.5 12.9969C0.5 15.859 1.46637 18.5015 3.09162 20.6105L4.25251 19.4493C2.91591 17.6416 2.12525 15.4071 2.12525 12.9969C2.12525 7.00264 7.001 2.11938 13 2.11938C18.999 2.11938 23.8747 6.99636 23.8747 12.9969C23.8747 15.4134 23.0841 17.6416 21.7475 19.4493L22.9084 20.6105C24.5336 18.5015 25.5 15.859 25.5 12.9969C25.4937 6.10507 19.8901 0.5 12.9937 0.5ZM18.8609 16.5683C19.5136 15.5013 19.8587 14.271 19.8587 12.9969C19.8587 9.21203 16.7776 6.13018 12.9937 6.13018C9.20984 6.13018 6.13504 9.21203 6.13504 12.9969C6.13504 14.271 6.48645 15.5013 7.13278 16.5683L8.32505 15.3757C7.95482 14.6476 7.75402 13.8317 7.75402 12.9969C7.75402 10.1033 10.1072 7.75584 12.9937 7.75584C15.8803 7.75584 18.2334 10.1096 18.2334 12.9969C18.2334 13.8317 18.0389 14.6476 17.6624 15.3757L18.8609 16.5683ZM12.9937 11.8482L4.76079 20.0895L3.61245 21.2381C3.97013 21.6461 4.35291 22.029 4.76079 22.3868C6.96335 24.32 9.84362 25.5 13 25.5C16.1564 25.5 19.0366 24.3263 21.2392 22.3868C21.6471 22.029 22.0299 21.6461 22.3876 21.2381L21.2392 20.0895L12.9937 11.8482ZM12.9937 23.8743C10.2892 23.8743 7.81049 22.8826 5.90286 21.2381L12.9937 14.1455L20.0846 21.2381C18.1832 22.8826 15.7046 23.8743 12.9937 23.8743Z" fill="white"/>
</svg>
