<svg width="21" height="20" viewBox="0 0 21 20" fill="none" xmlns="http://www.w3.org/2000/svg">
<path fill-rule="evenodd" clip-rule="evenodd" d="M6.47466 0.0601678C7.54128 0.0115215 7.88183 0 10.5977 0C13.3135 0 13.654 0.0115215 14.7207 0.0601678C15.785 0.108725 16.512 0.277796 17.148 0.524957C17.8056 0.780514 18.3633 1.12247 18.9193 1.67839C19.4752 2.23431 19.8171 2.79204 20.0727 3.44963C20.3199 4.08569 20.4889 4.81262 20.5375 5.877C20.5861 6.94362 20.5977 7.28417 20.5977 10C20.5977 12.7158 20.5861 13.0564 20.5375 14.123C20.4889 15.1874 20.3199 15.9143 20.0727 16.5504C19.8171 17.208 19.4752 17.7656 18.9193 18.3216C18.3633 18.8775 17.8056 19.2195 17.148 19.475C16.512 19.7222 15.785 19.8913 14.7207 19.9398C13.654 19.9885 13.3135 20 10.5977 20C7.88183 20 7.54128 19.9885 6.47466 19.9398C5.41028 19.8912 4.68335 19.7222 4.04726 19.475C3.38967 19.2195 2.83202 18.8775 2.27607 18.3216C1.72015 17.7656 1.3782 17.208 1.12264 16.5504C0.875422 15.9143 0.706411 15.1874 0.657794 14.123C0.609148 13.0564 0.597656 12.7158 0.597656 10C0.597656 7.28417 0.609148 6.94362 0.657794 5.877C0.706411 4.81262 0.875422 4.08569 1.12264 3.44963C1.37817 2.79204 1.72012 2.23431 2.27607 1.67839C2.83199 1.12247 3.38967 0.780514 4.04726 0.524957C4.68335 0.277796 5.41028 0.108725 6.47466 0.0601678ZM14.6385 1.86011C13.584 1.812 13.2678 1.80179 10.5977 1.80179H10.5977C7.92756 1.80179 7.61127 1.812 6.5568 1.86011C5.58182 1.90456 5.05231 2.06747 4.69993 2.20442C4.23318 2.38584 3.90004 2.60252 3.55011 2.95248C3.2002 3.30238 2.9835 3.63549 2.80207 4.10231C2.66512 4.45465 2.50225 4.98413 2.45777 5.95914C2.40966 7.01361 2.39944 7.3299 2.39944 10C2.39944 12.6701 2.40966 12.9864 2.45777 14.0409C2.50225 15.0158 2.66512 15.5454 2.80207 15.8977C2.9835 16.3645 3.2002 16.6976 3.55014 17.0475C3.90004 17.3975 4.23315 17.6142 4.69996 17.7956C5.05231 17.9325 5.58179 18.0954 6.5568 18.1399C7.61115 18.188 7.92735 18.1982 10.5977 18.1982C13.268 18.1982 13.5842 18.188 14.6385 18.1399C15.6135 18.0954 16.143 17.9325 16.4954 17.7956C16.9621 17.6142 17.2953 17.3975 17.6452 17.0475C17.9951 16.6976 18.2118 16.3645 18.3932 15.8977C18.5302 15.5454 18.6931 15.0159 18.7375 14.0409C18.7857 12.9864 18.7959 12.6701 18.7959 10C18.7959 7.3299 18.7857 7.01361 18.7375 5.95914C18.6931 4.98416 18.5302 4.45465 18.3932 4.10228C18.2118 3.63552 17.9951 3.30238 17.6452 2.95245C17.2953 2.60252 16.9622 2.38584 16.4954 2.20442C16.143 2.06747 15.6135 1.90456 14.6385 1.86011ZM7.26429 9.99999C7.26429 11.8409 8.75666 13.3333 10.5977 13.3333C12.4386 13.3333 13.931 11.8409 13.931 9.99999C13.931 8.15899 12.4386 6.66662 10.5977 6.66662C8.75666 6.66662 7.26429 8.15899 7.26429 9.99999ZM5.4625 9.99999C5.4625 7.16388 7.76156 4.86483 10.5977 4.86483C13.4337 4.86483 15.7328 7.16388 15.7328 9.99999C15.7328 12.836 13.4337 15.1351 10.5977 15.1351C7.76156 15.1351 5.4625 12.836 5.4625 9.99999ZM15.9357 5.86193C16.5984 5.86193 17.1357 5.3247 17.1357 4.66194C17.1357 3.9992 16.5984 3.46191 15.9357 3.46191C15.2729 3.46191 14.7357 3.9992 14.7357 4.66194C14.7357 5.3247 15.2729 5.86193 15.9357 5.86193Z" fill="white"/>
</svg>
