<svg width="21" height="20" viewBox="0 0 21 20" fill="none" xmlns="http://www.w3.org/2000/svg">
<path fill-rule="evenodd" clip-rule="evenodd" d="M6.59575 0.0601678C7.66237 0.0115215 8.00292 0 10.7188 0C13.4346 0 13.7751 0.0115215 14.8417 0.0601678C15.9061 0.108725 16.6331 0.277796 17.2691 0.524957C17.9267 0.780514 18.4844 1.12247 19.0404 1.67839C19.5963 2.23431 19.9382 2.79204 20.1938 3.44963C20.441 4.08569 20.61 4.81262 20.6586 5.877C20.7072 6.94362 20.7188 7.28417 20.7188 10C20.7188 12.7158 20.7072 13.0564 20.6586 14.123C20.61 15.1874 20.441 15.9143 20.1938 16.5504C19.9382 17.208 19.5963 17.7656 19.0404 18.3216C18.4844 18.8775 17.9267 19.2195 17.2691 19.475C16.6331 19.7222 15.9061 19.8913 14.8417 19.9398C13.7751 19.9885 13.4346 20 10.7188 20C8.00292 20 7.66237 19.9885 6.59575 19.9398C5.53137 19.8912 4.80444 19.7222 4.16835 19.475C3.51076 19.2195 2.95312 18.8775 2.39717 18.3216C1.84125 17.7656 1.49929 17.208 1.24374 16.5504C0.996516 15.9143 0.827505 15.1874 0.778888 14.123C0.730242 13.0564 0.71875 12.7158 0.71875 10C0.71875 7.28417 0.730242 6.94362 0.778888 5.877C0.827505 4.81262 0.996516 4.08569 1.24374 3.44963C1.49926 2.79204 1.84122 2.23431 2.39717 1.67839C2.95309 1.12247 3.51076 0.780514 4.16835 0.524957C4.80444 0.277796 5.53137 0.108725 6.59575 0.0601678ZM14.7596 1.86011C13.7051 1.812 13.3888 1.80179 10.7188 1.80179H10.7188C8.04865 1.80179 7.73236 1.812 6.67789 1.86011C5.70291 1.90456 5.1734 2.06747 4.82103 2.20442C4.35427 2.38584 4.02113 2.60252 3.6712 2.95248C3.3213 3.30238 3.10459 3.63549 2.92317 4.10231C2.78622 4.45465 2.62334 4.98413 2.57886 5.95914C2.53075 7.01361 2.52054 7.3299 2.52054 10C2.52054 12.6701 2.53075 12.9864 2.57886 14.0409C2.62334 15.0158 2.78622 15.5454 2.92317 15.8977C3.10459 16.3645 3.3213 16.6976 3.67123 17.0475C4.02113 17.3975 4.35424 17.6142 4.82106 17.7956C5.1734 17.9325 5.70288 18.0954 6.67789 18.1399C7.73224 18.188 8.04844 18.1982 10.7188 18.1982C13.3891 18.1982 13.7053 18.188 14.7596 18.1399C15.7346 18.0954 16.2641 17.9325 16.6165 17.7956C17.0832 17.6142 17.4164 17.3975 17.7663 17.0475C18.1162 16.6976 18.3329 16.3645 18.5143 15.8977C18.6513 15.5454 18.8142 15.0159 18.8586 14.0409C18.9067 12.9864 18.917 12.6701 18.917 10C18.917 7.3299 18.9067 7.01361 18.8586 5.95914C18.8142 4.98416 18.6513 4.45465 18.5143 4.10228C18.3329 3.63552 18.1162 3.30238 17.7663 2.95245C17.4164 2.60252 17.0833 2.38584 16.6164 2.20442C16.2641 2.06747 15.7346 1.90456 14.7596 1.86011ZM7.38538 9.99999C7.38538 11.8409 8.87776 13.3333 10.7188 13.3333C12.5597 13.3333 14.0521 11.8409 14.0521 9.99999C14.0521 8.15899 12.5597 6.66662 10.7188 6.66662C8.87776 6.66662 7.38538 8.15899 7.38538 9.99999ZM5.58359 9.99999C5.58359 7.16389 7.88265 4.86483 10.7188 4.86483C13.5548 4.86483 15.8539 7.16389 15.8539 9.99999C15.8539 12.836 13.5548 15.1351 10.7188 15.1351C7.88265 15.1351 5.58359 12.836 5.58359 9.99999ZM16.0567 5.86193C16.7195 5.86193 17.2568 5.3247 17.2568 4.66194C17.2568 3.9992 16.7195 3.46191 16.0567 3.46191C15.394 3.46191 14.8568 3.9992 14.8568 4.66194C14.8568 5.3247 15.394 5.86193 16.0567 5.86193Z" fill="#442671"/>
</svg>
