<svg width="40" height="40" viewBox="0 0 40 40" fill="none" xmlns="http://www.w3.org/2000/svg">
<path d="M22.5729 17.4281C21.2077 16.0635 19.3564 15.2969 17.4262 15.2969C15.4959 15.2969 13.6447 16.0635 12.2795 17.4281L7.13119 22.5747C5.76599 23.9399 4.99902 25.7915 4.99902 27.7222C4.99902 29.6529 5.76599 31.5045 7.13119 32.8697C8.49639 34.2349 10.348 35.0019 12.2787 35.0019C14.2094 35.0019 16.061 34.2349 17.4262 32.8697L19.9995 30.2964" stroke="#442970" stroke-width="2" stroke-linecap="round" stroke-linejoin="round"/>
<path d="M17.4258 22.5738C18.791 23.9384 20.6422 24.705 22.5724 24.705C24.5027 24.705 26.3539 23.9384 27.7191 22.5738L32.8675 17.4272C34.2327 16.062 34.9996 14.2104 34.9996 12.2797C34.9996 10.349 34.2327 8.49737 32.8675 7.13216C31.5022 5.76696 29.6506 5 27.7199 5C25.7893 5 23.9376 5.76696 22.5724 7.13216L19.9991 9.7055" stroke="#442970" stroke-width="2" stroke-linecap="round" stroke-linejoin="round"/>
</svg>
