<svg width="131" height="28" viewBox="0 0 131 28" fill="none" xmlns="http://www.w3.org/2000/svg">
<g clip-path="url(#clip0_7170_9589)">
<path d="M12.4286 3.17835C10.3693 3.17661 8.35058 3.75194 6.60152 4.83907C4.85246 5.9262 3.44299 7.48164 2.53293 9.32903C1.62288 11.1764 1.24864 13.2418 1.45266 15.2911C1.65668 17.3403 2.4308 19.2914 3.68723 20.9231L4.70902 19.9014C3.65388 18.4726 3.01596 16.779 2.86627 15.0092C2.71659 13.2393 3.06102 11.4627 3.86122 9.87701C4.66141 8.29133 5.88597 6.95882 7.39858 6.02784C8.91119 5.09686 10.6525 4.60394 12.4286 4.60394C14.2048 4.60394 15.9461 5.09686 17.4587 6.02784C18.9713 6.95882 20.1959 8.29133 20.9961 9.87701C21.7963 11.4627 22.1407 13.2393 21.991 15.0092C21.8413 16.779 21.2034 18.4726 20.1483 19.9014L21.1706 20.9231C22.4271 19.2914 23.2012 17.3403 23.4052 15.291C23.6092 13.2417 23.2349 11.1762 22.3248 9.32877C21.4147 7.48136 20.0051 5.92593 18.256 4.83885C16.5068 3.75176 14.4881 3.17651 12.4286 3.17835V3.17835ZM17.604 17.356C18.1627 16.4375 18.4669 15.3869 18.4854 14.3119C18.5038 13.237 18.2359 12.1765 17.709 11.2394C17.1821 10.3022 16.4154 9.52219 15.4874 8.97933C14.5594 8.43647 13.5037 8.15036 12.4286 8.15036C11.3536 8.15036 10.2978 8.43647 9.36987 8.97933C8.44191 9.52219 7.67514 10.3022 7.14828 11.2394C6.62143 12.1765 6.35346 13.237 6.37191 14.3119C6.39035 15.3869 6.69454 16.4375 7.25324 17.356L8.30549 16.3038C7.94697 15.5986 7.77529 14.8133 7.80687 14.0228C7.83844 13.2324 8.07222 12.4632 8.48584 11.7889C8.89947 11.1146 9.47914 10.5576 10.1694 10.1713C10.8597 9.78488 11.6376 9.58199 12.4286 9.58199C13.2197 9.58199 13.9976 9.78488 14.6879 10.1713C15.3782 10.5576 15.9578 11.1146 16.3714 11.7889C16.7851 12.4632 17.0188 13.2324 17.0504 14.0228C17.082 14.8133 16.9103 15.5986 16.5518 16.3038L17.604 17.356ZM12.4286 13.1935L5.15982 20.4646L4.14523 21.4786C5.09904 22.5683 6.25847 23.459 7.5571 24.0998C8.85572 24.7407 10.268 25.1189 11.7131 25.213C13.1582 25.3071 14.6076 25.1152 15.9784 24.6482C17.3491 24.1812 18.6143 23.4483 19.7013 22.4915C20.0608 22.1764 20.3991 21.838 20.7143 21.4786L19.6997 20.4646L12.4286 13.1935ZM12.4286 23.803C10.1307 23.8055 7.90893 22.9797 6.17053 21.477L12.4286 15.2188L18.6867 21.477C16.9483 22.9798 14.7266 23.8058 12.4286 23.8035V23.803Z" fill="#442671"/>
<path d="M42.7648 6.65299H45.2132V21.6614H42.7648L42.5255 19.7186C41.8884 20.4112 41.1152 20.9648 40.2544 21.3449C39.3935 21.7249 38.4634 21.9231 37.5224 21.9272C35.4729 21.9099 33.5133 21.0836 32.0702 19.6283C30.6271 18.1729 29.8174 16.2064 29.8174 14.1569C29.8174 12.1074 30.6271 10.1409 32.0702 8.68552C33.5133 7.23018 35.4729 6.4039 37.5224 6.3866C38.4661 6.38964 39.3987 6.59008 40.2604 6.97503C41.122 7.35997 41.8936 7.92091 42.5255 8.6218L42.7648 6.65299ZM42.5521 14.1572C42.5339 13.179 42.227 12.2279 41.6699 11.4236C41.1129 10.6193 40.3306 9.99746 39.4213 9.63634C38.512 9.27522 37.5162 9.19086 36.5591 9.39388C35.602 9.59689 34.7263 10.0782 34.0419 10.7774C33.3575 11.4766 32.8949 12.3624 32.7124 13.3237C32.5299 14.2849 32.6355 15.2786 33.016 16.18C33.3964 17.0814 34.0348 17.8502 34.8509 18.3899C35.6669 18.9296 36.6243 19.2162 37.6027 19.2135C38.2634 19.2202 38.9187 19.0932 39.5291 18.84C40.1395 18.5869 40.6924 18.2129 41.1546 17.7405C41.6167 17.2682 41.9785 16.7072 42.2182 16.0914C42.4579 15.4756 42.5705 14.8177 42.5493 14.1572H42.5521Z" fill="#442671"/>
<path d="M46.8623 19.9849L48.2203 17.7491C49.5345 18.7403 51.1244 19.2985 52.7699 19.3464C54.8744 19.3464 55.91 18.8141 55.91 17.4567C55.91 16.3391 54.979 15.7006 52.8236 15.3013C49.1246 14.5813 47.5546 13.1968 47.5546 10.6708C47.5546 8.06292 49.7366 6.38653 53.1692 6.38653C54.9119 6.36278 56.6295 6.8038 58.1452 7.66419L56.7606 9.89939C55.6785 9.24776 54.4305 8.92417 53.168 8.96787C51.4119 8.96787 50.2949 9.60641 50.2949 10.6708C50.2949 11.7884 50.9594 12.2143 53.5408 12.7753C57.0004 13.5474 58.6769 15.0377 58.6769 17.459C58.6769 20.253 56.3619 21.9293 52.7688 21.9293C50.6393 21.9505 48.5627 21.2669 46.8623 19.9849V19.9849Z" fill="#442671"/>
<path d="M60.6191 17.5365V0H63.3882V17.1638C63.3882 18.5744 63.7072 19.373 64.9317 19.373C65.4639 19.358 65.9808 19.1918 66.422 18.8939L67.4333 21.1823C66.6117 21.6923 65.6591 21.9512 64.6924 21.9272C62.0563 21.9272 60.6191 20.2242 60.6191 17.5365Z" fill="#442671"/>
<path d="M68.5227 2.39749C68.5173 2.02791 68.622 1.66509 68.8234 1.35517C69.0248 1.04524 69.3138 0.80223 69.6537 0.657051C69.9937 0.511872 70.3691 0.471084 70.7322 0.539876C71.0954 0.608667 71.4299 0.783923 71.6932 1.04336C71.9564 1.3028 72.1366 1.63469 72.2107 1.9968C72.2848 2.35891 72.2495 2.73489 72.1094 3.0769C71.9692 3.41891 71.7304 3.71149 71.4235 3.91742C71.1166 4.12336 70.7553 4.23335 70.3857 4.23339C70.1427 4.23565 69.9016 4.18992 69.6763 4.09879C69.4511 4.00766 69.246 3.87295 69.0729 3.70237C68.8998 3.5318 68.7621 3.32873 68.6677 3.1048C68.5732 2.88088 68.524 2.64051 68.5227 2.39749V2.39749ZM68.9751 21.6636V6.65523H71.7442V21.6636H68.9751Z" fill="#442671"/>
<path d="M73.8721 14.1572C73.8731 13.1235 74.0801 12.1004 74.481 11.1476C74.8818 10.1948 75.4684 9.33146 76.2066 8.6079C76.9448 7.88434 77.8198 7.31511 78.7804 6.93344C79.7411 6.55177 80.7681 6.36531 81.8016 6.38495C83.7599 6.34362 85.6547 7.0805 87.0706 8.43405L85.2081 10.4278C84.2719 9.58535 83.0609 9.11283 81.8016 9.09864C81.1313 9.08872 80.4657 9.21217 79.8435 9.46183C79.2214 9.71148 78.6551 10.0823 78.1775 10.5528C77.7 11.0233 77.3208 11.5841 77.062 12.2025C76.8032 12.8209 76.6699 13.4846 76.6699 14.155C76.6699 14.8253 76.8032 15.489 77.062 16.1074C77.3208 16.7258 77.7 17.2866 78.1775 17.7571C78.6551 18.2276 79.2214 18.5985 79.8435 18.8481C80.4657 19.0978 81.1313 19.2212 81.8016 19.2113C83.0609 19.1971 84.2719 18.7246 85.2081 17.8821L87.0977 19.8759C85.6618 21.2149 83.7649 21.9489 81.8016 21.925C80.7685 21.9446 79.7418 21.7583 78.7815 21.3769C77.8211 20.9955 76.9464 20.4267 76.2082 19.7036C75.4701 18.9805 74.8833 18.1176 74.4822 17.1654C74.0812 16.2131 73.8737 15.1905 73.8721 14.1572Z" fill="#442671"/>
<path d="M102.133 14.8755H90.3715C90.6639 17.51 92.7396 19.2933 95.6139 19.2933C97.0939 19.3137 98.5242 18.7603 99.6052 17.7493L101.362 19.6921C100.6 20.4435 99.6923 21.0298 98.694 21.4144C97.6958 21.7989 96.6289 21.9736 95.5601 21.9273C90.9563 21.9273 87.6306 18.7074 87.6306 14.2636C87.6036 13.242 87.7808 12.2253 88.1518 11.2732C88.5229 10.321 89.0804 9.45251 89.7916 8.71867C90.5028 7.98483 91.3534 7.4004 92.2935 6.99966C93.2335 6.59892 94.2442 6.38995 95.2661 6.385C96.1842 6.35126 97.0995 6.50724 97.9547 6.84319C98.8098 7.17915 99.5865 7.68785 100.236 8.33753C100.886 8.98722 101.395 9.76391 101.731 10.6191C102.067 11.4742 102.223 12.3895 102.189 13.3077C102.222 13.8309 102.204 14.356 102.133 14.8755V14.8755ZM99.4463 12.5606C99.4197 10.5912 97.5832 9.02115 95.2417 9.02115C94.1824 9.00915 93.1493 9.35069 92.3058 9.99173C91.4624 10.6328 90.8567 11.5367 90.5847 12.5606H99.4463Z" fill="#442671"/>
</g>
<path d="M111.003 12.2778V12.1753C111.003 11.8986 110.98 11.6366 110.935 11.3892C110.889 11.1385 110.822 10.9106 110.734 10.7056C110.65 10.5233 110.552 10.3589 110.441 10.2124C110.331 10.0627 110.205 9.93571 110.065 9.83154C109.909 9.72087 109.735 9.6346 109.543 9.57275C109.351 9.5109 109.141 9.47998 108.913 9.47998C108.731 9.47998 108.562 9.49788 108.405 9.53369C108.249 9.5695 108.106 9.62158 107.976 9.68994C107.871 9.74528 107.774 9.81201 107.683 9.89014C107.591 9.96501 107.508 10.0496 107.434 10.144V7.36084H106.53V14.8608H107.36L107.404 14.2603C107.463 14.3351 107.525 14.4035 107.59 14.4653C107.655 14.5272 107.723 14.5841 107.795 14.6362C107.945 14.7404 108.112 14.8201 108.298 14.8755C108.487 14.9308 108.695 14.9585 108.923 14.9585C109.121 14.9585 109.305 14.9341 109.475 14.8853C109.647 14.8364 109.805 14.7681 109.948 14.6802C110.147 14.5532 110.316 14.3937 110.456 14.2017C110.599 14.0063 110.715 13.7866 110.803 13.5425C110.868 13.3569 110.917 13.1584 110.949 12.9468C110.985 12.7319 111.003 12.509 111.003 12.2778ZM110.1 12.1753V12.2778C110.1 12.4341 110.09 12.5871 110.07 12.7368C110.051 12.8866 110.02 13.0265 109.978 13.1567C109.925 13.3293 109.855 13.4855 109.768 13.6255C109.68 13.7655 109.571 13.881 109.44 13.9722C109.343 14.0438 109.232 14.0991 109.108 14.1382C108.985 14.174 108.848 14.1919 108.698 14.1919C108.542 14.1919 108.399 14.1724 108.269 14.1333C108.138 14.091 108.021 14.0324 107.917 13.9575C107.813 13.8826 107.72 13.7964 107.639 13.6987C107.561 13.5978 107.492 13.4888 107.434 13.3716V11.062C107.489 10.9448 107.556 10.8374 107.634 10.7397C107.715 10.6388 107.808 10.5509 107.912 10.4761C108.013 10.4045 108.129 10.3491 108.259 10.3101C108.389 10.2677 108.532 10.2466 108.688 10.2466C108.832 10.2466 108.962 10.2629 109.079 10.2954C109.196 10.328 109.302 10.3735 109.396 10.4321C109.533 10.5135 109.649 10.6258 109.743 10.769C109.838 10.9123 109.914 11.0701 109.973 11.2427C110.015 11.3826 110.046 11.5324 110.065 11.6919C110.088 11.8481 110.1 12.0093 110.1 12.1753ZM114.865 14.9585C115.38 14.9585 115.811 14.856 116.159 14.6509C116.511 14.4425 116.774 14.2049 116.95 13.938L116.398 13.5083C116.232 13.7231 116.024 13.8957 115.773 14.0259C115.523 14.1561 115.236 14.2212 114.914 14.2212C114.67 14.2212 114.447 14.1756 114.245 14.0845C114.043 13.9933 113.871 13.868 113.728 13.7085C113.588 13.5588 113.477 13.3862 113.396 13.1909C113.317 12.9956 113.267 12.7694 113.244 12.5122V12.478H117.019V12.0728C117.019 11.7049 116.971 11.3631 116.877 11.0474C116.786 10.7316 116.646 10.4565 116.457 10.2222C116.268 9.99105 116.031 9.81038 115.744 9.68018C115.461 9.54671 115.129 9.47998 114.748 9.47998C114.445 9.47998 114.149 9.54183 113.859 9.66553C113.573 9.78923 113.317 9.96663 113.093 10.1978C112.865 10.4321 112.683 10.7186 112.546 11.0571C112.409 11.3924 112.341 11.7733 112.341 12.1997V12.4048C112.341 12.7726 112.403 13.1128 112.526 13.4253C112.65 13.7378 112.823 14.008 113.044 14.2358C113.265 14.4637 113.531 14.6411 113.84 14.7681C114.152 14.895 114.494 14.9585 114.865 14.9585ZM114.748 10.2222C114.979 10.2222 115.178 10.2645 115.344 10.3491C115.513 10.4338 115.653 10.5444 115.764 10.6812C115.874 10.8179 115.961 10.9806 116.022 11.1694C116.084 11.355 116.115 11.5291 116.115 11.6919V11.7358H113.273C113.309 11.4917 113.371 11.2769 113.459 11.0913C113.55 10.9025 113.661 10.743 113.791 10.6128C113.921 10.4858 114.068 10.3898 114.23 10.3247C114.393 10.2563 114.566 10.2222 114.748 10.2222ZM120.676 8.29834H119.768V9.57764H118.381V10.2759H119.768V13.147C119.768 13.4725 119.81 13.7508 119.895 13.9819C119.982 14.2098 120.101 14.3953 120.251 14.5386C120.401 14.6851 120.576 14.7925 120.778 14.8608C120.983 14.9259 121.203 14.9585 121.438 14.9585C121.577 14.9585 121.717 14.952 121.857 14.939C122.001 14.9259 122.136 14.9064 122.263 14.8804C122.39 14.8576 122.507 14.8299 122.614 14.7974C122.722 14.7616 122.813 14.7209 122.888 14.6753L122.761 14.0356C122.705 14.0487 122.634 14.0649 122.546 14.0845C122.461 14.1007 122.37 14.117 122.272 14.1333C122.172 14.1496 122.069 14.1642 121.965 14.1772C121.861 14.187 121.76 14.1919 121.662 14.1919C121.529 14.1919 121.402 14.1756 121.281 14.1431C121.164 14.1105 121.06 14.0535 120.969 13.9722C120.878 13.894 120.806 13.7882 120.754 13.6548C120.702 13.5213 120.676 13.3521 120.676 13.147V10.2759H122.688V9.57764H120.676V8.29834ZM128.015 14.8608H128.957V14.7827C128.898 14.6362 128.853 14.4653 128.82 14.27C128.788 14.0715 128.771 13.8843 128.771 13.7085V11.2524C128.771 10.9562 128.718 10.6974 128.61 10.4761C128.503 10.2547 128.356 10.0692 128.171 9.91943C127.982 9.77295 127.759 9.6639 127.502 9.59229C127.245 9.51742 126.966 9.47998 126.667 9.47998C126.338 9.47998 126.044 9.52555 125.783 9.6167C125.526 9.70785 125.308 9.82666 125.129 9.97314C124.947 10.1229 124.807 10.2905 124.709 10.4761C124.615 10.6616 124.566 10.8504 124.562 11.0425H125.471C125.471 10.9318 125.497 10.826 125.549 10.7251C125.604 10.6209 125.681 10.5314 125.778 10.4565C125.876 10.3817 125.995 10.3215 126.135 10.2759C126.278 10.2303 126.439 10.2075 126.618 10.2075C126.81 10.2075 126.983 10.2319 127.136 10.2808C127.292 10.3296 127.424 10.3979 127.531 10.4858C127.639 10.577 127.722 10.686 127.78 10.813C127.839 10.9399 127.868 11.0832 127.868 11.2427V11.6577H126.882C126.514 11.6577 126.18 11.6935 125.881 11.7651C125.585 11.8368 125.331 11.9442 125.119 12.0874C124.908 12.2339 124.743 12.4162 124.626 12.6343C124.512 12.8524 124.455 13.1063 124.455 13.396C124.455 13.6174 124.497 13.8241 124.582 14.0161C124.67 14.2049 124.794 14.3677 124.953 14.5044C125.109 14.6444 125.3 14.755 125.524 14.8364C125.752 14.9178 126.006 14.9585 126.286 14.9585C126.459 14.9585 126.621 14.9406 126.774 14.9048C126.927 14.869 127.072 14.8201 127.209 14.7583C127.342 14.6965 127.465 14.6248 127.575 14.5435C127.689 14.4621 127.792 14.3758 127.883 14.2847C127.893 14.3953 127.907 14.5028 127.927 14.6069C127.95 14.7078 127.979 14.7925 128.015 14.8608ZM126.418 14.1724C126.242 14.1724 126.088 14.1496 125.954 14.104C125.821 14.0584 125.71 13.995 125.622 13.9136C125.534 13.8354 125.467 13.741 125.422 13.6304C125.38 13.5197 125.358 13.3993 125.358 13.269C125.358 13.1323 125.383 13.0103 125.432 12.9028C125.484 12.7954 125.559 12.7026 125.656 12.6245C125.793 12.5138 125.977 12.4325 126.208 12.3804C126.442 12.325 126.716 12.2974 127.028 12.2974H127.868V13.3667C127.816 13.4709 127.744 13.5718 127.653 13.6694C127.562 13.7638 127.455 13.8485 127.331 13.9233C127.204 13.9982 127.064 14.0584 126.911 14.104C126.758 14.1496 126.594 14.1724 126.418 14.1724Z" fill="#AAA3B1"/>
<defs>
<clipPath id="clip0_7170_9589">
<rect width="100.786" height="25.2357" fill="white" transform="translate(1.40039)"/>
</clipPath>
</defs>
</svg>
