<svg width="110" height="28" viewBox="0 0 110 28" fill="none" xmlns="http://www.w3.org/2000/svg">
<g clip-path="url(#clip0_6992_9383)">
<path d="M12.5068 3.17847C10.4474 3.17674 8.42871 3.75206 6.67965 4.83919C4.93059 5.92632 3.52112 7.48176 2.61106 9.32915C1.701 11.1765 1.32676 13.242 1.53078 15.2912C1.7348 17.3405 2.50892 19.2916 3.76535 20.9233L4.78714 19.9015C3.732 18.4727 3.09408 16.7791 2.9444 15.0093C2.79472 13.2395 3.13915 11.4628 3.93934 9.87713C4.73954 8.29145 5.9641 6.95894 7.47671 6.02796C8.98931 5.09698 10.7306 4.60406 12.5068 4.60406C14.2829 4.60406 16.0242 5.09698 17.5368 6.02796C19.0494 6.95894 20.274 8.29145 21.0742 9.87713C21.8744 11.4628 22.2188 13.2395 22.0691 15.0093C21.9194 16.7791 21.2815 18.4727 20.2264 19.9015L21.2487 20.9233C22.5052 19.2915 23.2793 17.3404 23.4833 15.2911C23.6873 13.2418 23.313 11.1763 22.4029 9.3289C21.4928 7.48149 20.0832 5.92606 18.3341 4.83897C16.5849 3.75188 14.5662 3.17663 12.5068 3.17847ZM17.6822 17.3561C18.2409 16.4376 18.5451 15.387 18.5635 14.312C18.5819 13.2371 18.314 12.1766 17.7871 11.2395C17.2603 10.3024 16.4935 9.52231 15.5655 8.97945C14.6376 8.43659 13.5819 8.15048 12.5068 8.15048C11.4317 8.15048 10.376 8.43659 9.448 8.97945C8.52003 9.52231 7.75327 10.3024 7.22641 11.2395C6.69955 12.1766 6.43159 13.2371 6.45003 14.312C6.46848 15.387 6.77266 16.4376 7.33136 17.3561L8.38362 16.3039C8.02509 15.5987 7.85342 14.8134 7.88499 14.023C7.91657 13.2325 8.15034 12.4634 8.56397 11.7891C8.9776 11.1147 9.55726 10.5578 10.2476 10.1714C10.9378 9.785 11.7157 9.58211 12.5068 9.58211C13.2978 9.58211 14.0757 9.785 14.766 10.1714C15.4563 10.5578 16.0359 11.1147 16.4496 11.7891C16.8632 12.4634 17.097 13.2325 17.1285 14.023C17.1601 14.8134 16.9884 15.5987 16.6299 16.3039L17.6822 17.3561ZM12.5068 13.1937L5.23794 20.4647L4.22336 21.4787C5.17716 22.5684 6.33659 23.4591 7.63522 24.1C8.93385 24.7408 10.3462 25.1191 11.7912 25.2132C13.2363 25.3073 14.6857 25.1153 16.0565 24.6483C17.4273 24.1813 18.6924 23.4484 19.7795 22.4917C20.1389 22.1765 20.4773 21.8382 20.7924 21.4787L19.7778 20.4647L12.5068 13.1937ZM12.5068 23.8031C10.2089 23.8056 7.98706 22.9798 6.24866 21.4771L12.5068 15.219L18.7649 21.4771C17.0265 22.9799 14.8047 23.8059 12.5068 23.8036V23.8031Z" fill="white"/>
<path d="M42.8429 6.65311H45.2913V21.6615H42.8429L42.6036 19.7187C41.9666 20.4113 41.1934 20.9649 40.3325 21.345C39.4716 21.725 38.5415 21.9233 37.6005 21.9273C35.551 21.91 33.5914 21.0837 32.1483 19.6284C30.7052 18.1731 29.8955 16.2066 29.8955 14.157C29.8955 12.1075 30.7052 10.141 32.1483 8.68564C33.5914 7.2303 35.551 6.40402 37.6005 6.38672C38.5442 6.38977 39.4768 6.5902 40.3385 6.97515C41.2001 7.36009 41.9717 7.92103 42.6036 8.62192L42.8429 6.65311ZM42.6302 14.1573C42.612 13.1791 42.3051 12.2281 41.748 11.4237C41.191 10.6194 40.4087 9.99759 39.4994 9.63646C38.5901 9.27534 37.5943 9.19098 36.6372 9.394C35.6801 9.59702 34.8044 10.0784 34.12 10.7775C33.4356 11.4767 32.9731 12.3626 32.7905 13.3238C32.608 14.285 32.7136 15.2787 33.0941 16.1801C33.4746 17.0815 34.1129 17.8503 34.929 18.39C35.745 18.9298 36.7024 19.2163 37.6808 19.2136C38.3416 19.2203 38.9969 19.0933 39.6073 18.8401C40.2177 18.587 40.7706 18.213 41.2327 17.7406C41.6948 17.2683 42.0566 16.7073 42.2963 16.0915C42.536 15.4757 42.6486 14.8178 42.6275 14.1573H42.6302Z" fill="white"/>
<path d="M46.9404 19.985L48.2984 17.7493C49.6127 18.7404 51.2025 19.2986 52.848 19.3465C54.9525 19.3465 55.9881 18.8143 55.9881 17.4569C55.9881 16.3393 55.0572 15.7007 52.9017 15.3014C49.2028 14.5815 47.6327 13.1969 47.6327 10.671C47.6327 8.06305 49.8147 6.38665 53.2473 6.38665C54.99 6.3629 56.7076 6.80392 58.2233 7.66431L56.8388 9.89951C55.7566 9.24789 54.5086 8.92429 53.2462 8.96799C51.49 8.96799 50.373 9.60653 50.373 10.671C50.373 11.7886 51.0376 12.2145 53.6189 12.7755C57.0786 13.5475 58.755 15.0378 58.755 17.4591C58.755 20.2531 56.44 21.9295 52.8469 21.9295C50.7175 21.9506 48.6408 21.267 46.9404 19.985Z" fill="white"/>
<path d="M60.6973 17.5365V0H63.4663V17.1638C63.4663 18.5744 63.7853 19.373 65.0098 19.373C65.542 19.358 66.0589 19.1918 66.5001 18.8939L67.5114 21.1823C66.6899 21.6923 65.7372 21.9512 64.7706 21.9272C62.1344 21.9272 60.6973 20.2242 60.6973 17.5365Z" fill="white"/>
<path d="M68.6008 2.39749C68.5954 2.02791 68.7001 1.66509 68.9015 1.35517C69.1029 1.04524 69.392 0.80223 69.7319 0.657051C70.0718 0.511872 70.4472 0.471084 70.8104 0.539876C71.1735 0.608667 71.508 0.783923 71.7713 1.04336C72.0346 1.3028 72.2147 1.63469 72.2888 1.9968C72.3629 2.35891 72.3277 2.73489 72.1875 3.0769C72.0473 3.41891 71.8086 3.71149 71.5016 3.91742C71.1947 4.12336 70.8334 4.23335 70.4638 4.23339C70.2208 4.23565 69.9798 4.18992 69.7545 4.09879C69.5292 4.00766 69.3241 3.87295 69.151 3.70237C68.9779 3.5318 68.8402 3.32873 68.7458 3.1048C68.6514 2.88088 68.6021 2.64051 68.6008 2.39749ZM69.0533 21.6636V6.65523H71.8223V21.6636H69.0533Z" fill="white"/>
<path d="M73.9502 14.1572C73.9513 13.1235 74.1583 12.1004 74.5591 11.1476C74.9599 10.1948 75.5466 9.33146 76.2848 8.6079C77.023 7.88434 77.8979 7.31511 78.8586 6.93344C79.8192 6.55177 80.8462 6.36531 81.8797 6.38495C83.838 6.34362 85.7328 7.0805 87.1487 8.43405L85.2862 10.4278C84.3501 9.58535 83.139 9.11283 81.8797 9.09864C81.2094 9.08872 80.5438 9.21217 79.9217 9.46183C79.2995 9.71148 78.7332 10.0823 78.2557 10.5528C77.7781 11.0233 77.3989 11.5841 77.1401 12.2025C76.8813 12.8209 76.748 13.4846 76.748 14.155C76.748 14.8253 76.8813 15.489 77.1401 16.1074C77.3989 16.7258 77.7781 17.2866 78.2557 17.7571C78.7332 18.2276 79.2995 18.5985 79.9217 18.8481C80.5438 19.0978 81.2094 19.2212 81.8797 19.2113C83.139 19.1971 84.3501 18.7246 85.2862 17.8821L87.1758 19.8759C85.7399 21.2149 83.843 21.9489 81.8797 21.925C80.8466 21.9446 79.8199 21.7583 78.8596 21.3769C77.8992 20.9955 77.0245 20.4267 76.2864 19.7036C75.5482 18.9805 74.9615 18.1176 74.5604 17.1654C74.1593 16.2131 73.9518 15.1905 73.9502 14.1572Z" fill="white"/>
<path d="M102.212 14.8754H90.4496C90.742 17.5099 92.8177 19.2932 95.692 19.2932C97.172 19.3136 98.6024 18.7602 99.6833 17.7492L101.44 19.6919C100.679 20.4433 99.7704 21.0297 98.7721 21.4142C97.7739 21.7988 96.707 21.9734 95.6383 21.9271C91.0344 21.9271 87.7087 18.7073 87.7087 14.2634C87.6817 13.2419 87.8589 12.2252 88.23 11.273C88.601 10.3209 89.1585 9.45239 89.8697 8.71855C90.5809 7.98471 91.4315 7.40027 92.3716 6.99954C93.3117 6.5988 94.3223 6.38983 95.3442 6.38488C96.2624 6.35113 97.1776 6.50711 98.0328 6.84307C98.888 7.17902 99.6647 7.68773 100.314 8.33741C100.964 8.9871 101.473 9.76379 101.809 10.619C102.145 11.4741 102.301 12.3894 102.267 13.3076C102.3 13.8307 102.282 14.3559 102.212 14.8754ZM99.5244 12.5605C99.4978 10.5911 97.6614 9.02103 95.3198 9.02103C94.2605 9.00903 93.2274 9.35057 92.3839 9.99161C91.5405 10.6326 90.9348 11.5366 90.6628 12.5605H99.5244Z" fill="white"/>
</g>
<defs>
<clipPath id="clip0_6992_9383">
<rect width="100.786" height="25.2357" fill="white" transform="translate(1.47852)"/>
</clipPath>
</defs>
</svg>
