<svg width="79" height="20" viewBox="0 0 79 20" fill="none" xmlns="http://www.w3.org/2000/svg">
<g clip-path="url(#clip0_6415_7071)">
<path d="M8.58382 2.5192C3.85 2.5192 0 6.43845 0 11.2574C0 13.2587 0.663942 15.1064 1.78057 16.5811L2.57816 15.7691C1.65985 14.5052 1.11663 12.9427 1.11663 11.2574C1.11663 7.06605 4.46652 3.65152 8.58813 3.65152C12.7097 3.65152 16.0596 7.06166 16.0596 11.2574C16.0596 12.9471 15.5164 14.5052 14.5981 15.7691L15.3957 16.5811C16.5123 15.1064 17.1763 13.2587 17.1763 11.2574C17.1719 6.43845 13.3219 2.5192 8.58382 2.5192ZM12.6149 13.7547C13.0633 13.0086 13.3004 12.1483 13.3004 11.2574C13.3004 8.61093 11.1835 6.456 8.58382 6.456C5.9841 6.456 3.87156 8.61093 3.87156 11.2574C3.87156 12.1483 4.11299 13.0086 4.55705 13.7547L5.3762 12.9208C5.12184 12.4117 4.98387 11.8411 4.98387 11.2574C4.98387 9.23415 6.60062 7.59271 8.58382 7.59271C10.567 7.59271 12.1838 9.23853 12.1838 11.2574C12.1838 11.8411 12.0501 12.4117 11.7914 12.9208L12.6149 13.7547ZM8.58382 10.4542L2.92738 16.2168L2.13841 17.02C2.38415 17.3052 2.64714 17.573 2.92738 17.8231C4.44065 19.1749 6.41954 20 8.58813 20C10.7567 20 12.7356 19.1793 14.2489 17.8231C14.5291 17.573 14.7921 17.3052 15.0378 17.02L14.2489 16.2168L8.58382 10.4542ZM8.58382 18.8633C6.72564 18.8633 5.02268 18.1699 3.71204 17.02L8.58382 12.0606L13.4556 17.02C12.1493 18.1699 10.4463 18.8633 8.58382 18.8633Z" fill="#442671"/>
<path d="M32.1968 5.27101H34.1024V17.1648H32.1968L32.0115 15.6243C31.0155 16.6996 29.6489 17.3755 28.1184 17.3755C24.7642 17.3755 22.1299 14.6763 22.1299 11.2179C22.1299 7.75949 24.7598 5.06035 28.1184 5.06035C29.6532 5.06035 31.0199 5.73623 32.0115 6.83344L32.1968 5.27101ZM32.033 11.2179C32.033 8.94009 30.3775 7.21089 28.1787 7.21089C25.9627 7.21089 24.3028 8.94009 24.3028 11.2179C24.3028 13.4957 25.9584 15.2249 28.1787 15.2249C30.3775 15.2249 32.033 13.4957 32.033 11.2179Z" fill="#442671"/>
<path d="M35.3915 15.8394L36.4478 14.0663C37.5041 14.8694 38.8319 15.3303 39.9917 15.3303C41.63 15.3303 42.4362 14.9089 42.4362 13.8337C42.4362 12.9471 41.7119 12.4424 40.0348 12.1264C37.1548 11.5558 35.9347 10.4586 35.9347 8.45732C35.9347 6.39017 37.6334 5.06035 40.3064 5.06035C41.7378 5.06035 43.1045 5.42023 44.1823 6.07417L43.1045 7.84727C42.212 7.32061 41.4274 7.10994 40.3064 7.10994C38.9397 7.10994 38.0688 7.61466 38.0688 8.46171C38.0688 9.34826 38.5862 9.6862 40.5953 10.1295C43.2898 10.7395 44.5919 11.9201 44.5919 13.8424C44.5919 16.0544 42.7897 17.3842 39.9917 17.3842C38.2887 17.3755 36.5081 16.7874 35.3915 15.8394Z" fill="#442671"/>
<path d="M46.1008 13.8995V0H48.2565V13.6011C48.2565 14.7202 48.5065 15.3522 49.4593 15.3522C49.8732 15.3522 50.1836 15.2249 50.6191 14.9748L51.408 16.7874C50.7225 17.2306 49.9982 17.3799 49.2739 17.3799C47.2174 17.3755 46.1008 16.0281 46.1008 13.8995Z" fill="#442671"/>
<path d="M52.2531 1.89598C52.2531 1.09282 52.8955 0.438885 53.7017 0.438885C54.4906 0.438885 55.1503 1.09282 55.1503 1.89598C55.1503 2.69914 54.4863 3.35308 53.7017 3.35308C52.8955 3.35308 52.2531 2.69914 52.2531 1.89598ZM52.6066 17.1648V5.27101H54.7623V17.1648H52.6066Z" fill="#442671"/>
<path d="M56.4178 11.2179C56.4178 7.75949 59.1512 5.06035 62.5916 5.06035C64.2471 5.06035 65.6354 5.65284 66.6916 6.68422L65.243 8.26421C64.5403 7.63221 63.6047 7.21089 62.5916 7.21089C60.354 7.21089 58.595 8.94009 58.595 11.2179C58.595 13.4957 60.354 15.2249 62.5916 15.2249C63.6047 15.2249 64.5403 14.8036 65.243 14.1716L66.7132 15.7516C65.6354 16.7654 64.2471 17.3755 62.5916 17.3755C59.1512 17.3755 56.4178 14.6763 56.4178 11.2179Z" fill="#442671"/>
<path d="M78.4184 11.7885H69.2612C69.4897 13.8775 71.1064 15.2908 73.344 15.2908C74.5469 15.2908 75.7066 14.8255 76.4525 14.0663L77.8191 15.6068C76.681 16.7874 75.1677 17.3799 73.3009 17.3799C69.7182 17.3799 67.1271 14.8299 67.1271 11.3057C67.1271 7.80338 69.7354 5.06473 73.0724 5.06473C76.2024 5.06473 78.4572 7.36449 78.4572 10.5464C78.4615 11.4505 78.4615 11.5997 78.4184 11.7885ZM76.3274 9.95391C76.3059 8.39148 74.8788 7.14944 73.0551 7.14944C71.3134 7.14944 69.9079 8.26859 69.4293 9.95391H76.3274Z" fill="#442671"/>
</g>
<defs>
<clipPath id="clip0_6415_7071">
<rect width="78.4615" height="20" fill="white"/>
</clipPath>
</defs>
</svg>
