<svg
    width="46"
    height="45"
    viewBox="0 0 46 45"
    fill="none"
    xmlns="http://www.w3.org/2000/svg"
>
    <path
            d="M30.7288 32.2227H27.2892C27.0547 32.2227 26.8535 32.394 26.8172 32.6261L25.4264 41.4454C25.399 41.6192 25.5336 41.7764 25.7099 41.7764H27.4742C27.6382 41.7764 27.7787 41.6569 27.8042 41.4944L28.1993 38.9942C28.2355 38.7622 28.4357 38.5908 28.6712 38.5908H29.7595C32.0252 38.5908 33.3323 37.4947 33.674 35.3215C33.8277 34.3713 33.6809 33.6243 33.2354 33.1014C32.7468 32.5262 31.8793 32.2227 30.7288 32.2227ZM31.1259 35.4434C30.9379 36.6781 29.995 36.6781 29.0829 36.6781H28.5635L28.9277 34.3733C28.9498 34.2338 29.0697 34.1309 29.2107 34.1309H29.4481C30.0694 34.1309 30.6559 34.1309 30.9579 34.4849C31.1391 34.6964 31.1944 35.0097 31.1259 35.4434Z"
            fill="#009CDE"
    />
    <path
            d="M6.19756 32.2228H2.75842C2.52294 32.2228 2.32271 32.3941 2.28599 32.6262L0.895157 41.4455C0.867742 41.6193 1.00237 41.7765 1.17861 41.7765H2.82059C3.05558 41.7765 3.25581 41.6056 3.29252 41.3736L3.66801 38.9943C3.70473 38.7623 3.90496 38.5909 4.13995 38.5909H5.22824C7.49342 38.5909 8.80103 37.4948 9.14324 35.3217C9.29696 34.3714 9.14911 33.6244 8.70459 33.1015C8.21503 32.5263 7.34802 32.2228 6.19756 32.2228ZM6.59459 35.4436C6.4066 36.6782 5.46372 36.6782 4.55167 36.6782H4.03274L4.39648 34.3734C4.41851 34.2339 4.53894 34.1311 4.67993 34.1311H4.91786C5.53862 34.1311 6.12511 34.1311 6.42717 34.485C6.60781 34.6965 6.66264 35.0098 6.59459 35.4436Z"
            fill="#003087"
    />
    <path
            d="M16.4773 35.4043H14.8309C14.6894 35.4043 14.5695 35.5067 14.5475 35.6462L14.4755 36.1064L14.36 35.9394C14.0036 35.4215 13.2085 35.2491 12.4149 35.2491C10.5957 35.2491 9.0414 36.6277 8.73885 38.5615C8.58121 39.5264 8.80494 40.4482 9.35178 41.092C9.85406 41.6834 10.5718 41.9291 11.426 41.9291C12.8923 41.9291 13.7059 40.9872 13.7059 40.9872L13.6325 41.445C13.6051 41.6188 13.7392 41.7764 13.9154 41.7764H15.3988C15.6338 41.7764 15.834 41.6055 15.8712 41.374L16.7608 35.7358C16.7882 35.561 16.6536 35.4043 16.4773 35.4043ZM14.1823 38.6095C14.0231 39.5509 13.2761 40.1819 12.3234 40.1819C11.8456 40.1819 11.4632 40.0282 11.2175 39.7379C10.9737 39.4491 10.8821 39.0383 10.9595 38.5811C11.1078 37.6485 11.8671 36.9964 12.8056 36.9964C13.2731 36.9964 13.6526 37.1511 13.9037 37.4453C14.1553 37.741 14.2547 38.1547 14.1823 38.6095Z"
            fill="#003087"
    />
    <path
            d="M41.0083 35.4043H39.3619C39.221 35.4043 39.101 35.5067 39.079 35.6462L39.0065 36.1064L38.8915 35.9394C38.5346 35.4215 37.74 35.2491 36.9465 35.2491C35.1263 35.2491 33.572 36.6277 33.2699 38.5615C33.1128 39.5264 33.336 40.4482 33.8828 41.092C34.3851 41.6834 35.1028 41.9291 35.9571 41.9291C37.4233 41.9291 38.237 40.9872 38.237 40.9872L38.1635 41.445C38.1356 41.6188 38.2707 41.7764 38.4465 41.7764H39.9298C40.1643 41.7764 40.3651 41.6055 40.4018 41.374L41.2918 35.7358C41.3192 35.561 41.1846 35.4043 41.0083 35.4043ZM38.7133 38.6095C38.5542 39.5509 37.8071 40.1819 36.8544 40.1819C36.3766 40.1819 35.9943 40.0282 35.748 39.7379C35.5052 39.4491 35.4127 39.0383 35.4905 38.5811C35.6394 37.6485 36.3977 36.9964 37.3362 36.9964C37.8042 36.9964 38.1836 37.1511 38.4342 37.4453C38.6864 37.741 38.7857 38.1547 38.7133 38.6095Z"
            fill="#009CDE"
    />
    <path
            d="M25.2491 35.4043H23.5934C23.4353 35.4043 23.287 35.4826 23.1979 35.6133L20.9146 38.9766L19.9462 35.745C19.886 35.5424 19.6995 35.4043 19.4885 35.4043H17.8612C17.6649 35.4043 17.5268 35.5977 17.5895 35.7832L19.4126 41.1336L17.6982 43.5525C17.564 43.7425 17.7001 44.0049 17.9327 44.0049H19.5869C19.7431 44.0049 19.8899 43.928 19.9795 43.7992L25.4851 35.8542C25.6163 35.6638 25.4802 35.4043 25.2491 35.4043Z"
            fill="#003087"
    />
    <path
            d="M42.9492 32.4645L41.5379 41.445C41.5099 41.6188 41.6446 41.7759 41.8208 41.7759H43.2405C43.4755 41.7759 43.6758 41.6051 43.7125 41.3735L45.1043 32.5536C45.1317 32.3798 44.9971 32.2222 44.8213 32.2222H43.2322C43.0917 32.2227 42.9713 32.3255 42.9492 32.4645Z"
            fill="#009CDE"
    />
    <path
            d="M33.951 7.48316C34.3031 5.23647 33.9491 3.70795 32.7336 2.3238C31.396 0.799927 28.9798 0.146973 25.8883 0.146973H16.9136C16.2821 0.146973 15.7437 0.607114 15.645 1.23119L11.908 24.9276C11.8344 25.3961 12.1958 25.818 12.669 25.818H18.2093L17.8265 28.2436C17.7622 28.6525 18.0789 29.0223 18.4934 29.0223H23.1637C23.7161 29.0223 24.1865 28.6199 24.2731 28.074L24.3188 27.8365L25.1981 22.258L25.2549 21.9497C25.3415 21.4038 25.8119 21.0005 26.3642 21.0005H27.0628C31.5869 21.0005 35.1293 19.1637 36.1641 13.8469C36.5973 11.6263 36.3737 9.77176 35.2299 8.46864C34.8834 8.07557 34.453 7.74956 33.951 7.48316Z"
            fill="#009CDE"
    />
    <path
            d="M33.951 7.48315C34.3031 5.23647 33.9491 3.70794 32.7336 2.32379C31.396 0.799926 28.9798 0.146973 25.8883 0.146973H16.9136C16.2821 0.146973 15.7437 0.607114 15.645 1.23119L11.908 24.9275C11.8344 25.3961 12.1958 25.818 12.669 25.818H18.2093L19.6009 16.9924L19.5581 17.27C19.6568 16.645 20.1896 16.1858 20.822 16.1858H23.4553C28.6267 16.1858 32.6758 14.0844 33.8597 8.00849C33.8942 7.82872 33.924 7.65547 33.951 7.48315Z"
            fill="#012169"
    />
    <path
            d="M21.0968 7.51296C21.1555 7.13758 21.3968 6.8302 21.7209 6.67464C21.8681 6.60385 22.0329 6.56473 22.2062 6.56473H29.2415C30.0752 6.56473 30.852 6.61969 31.5627 6.73426C31.7658 6.76686 31.9632 6.80412 32.1551 6.84696C32.347 6.88888 32.5333 6.93638 32.714 6.98948C32.8043 7.01556 32.8928 7.0435 32.9804 7.07238C33.3297 7.18881 33.6548 7.3248 33.9528 7.48315C34.3049 5.23647 33.951 3.70794 32.7354 2.32379C31.396 0.799926 28.9798 0.146973 25.8883 0.146973H16.9136C16.2821 0.146973 15.7437 0.607114 15.645 1.23119L11.908 24.9275C11.8344 25.3961 12.1958 25.818 12.669 25.818H18.2093L19.6009 16.9924L21.0968 7.51296Z"
            fill="#003087"
    />
</svg>