<svg width="35" height="45" viewBox="0 0 35 45" fill="none" xmlns="http://www.w3.org/2000/svg">
<path d="M4.59507 34.3C5.2624 34.3 5.84173 34.41 6.33307 34.63C6.83173 34.85 7.21307 35.1653 7.47707 35.576C7.74107 35.9867 7.87307 36.4743 7.87307 37.039C7.87307 37.5963 7.74107 38.084 7.47707 38.502C7.21307 38.9127 6.83173 39.228 6.33307 39.448C5.84173 39.668 5.2624 39.778 4.59507 39.778H2.85707V42H1.42707V34.3H4.59507ZM4.52907 38.568C5.1524 38.568 5.6254 38.436 5.94807 38.172C6.27073 37.908 6.43207 37.5303 6.43207 37.039C6.43207 36.5477 6.27073 36.17 5.94807 35.906C5.6254 35.642 5.1524 35.51 4.52907 35.51H2.85707V38.568H4.52907ZM12.6095 36.06C13.3502 36.06 13.9442 36.2763 14.3915 36.709C14.8388 37.1417 15.0625 37.7833 15.0625 38.634V42H13.6875V38.81C13.6875 38.2967 13.5665 37.9117 13.3245 37.655C13.0825 37.391 12.7378 37.259 12.2905 37.259C11.7845 37.259 11.3848 37.413 11.0915 37.721C10.7982 38.0217 10.6515 38.458 10.6515 39.03V42H9.27651V33.838H10.6515V36.808C10.8788 36.566 11.1575 36.3827 11.4875 36.258C11.8248 36.126 12.1988 36.06 12.6095 36.06ZM19.5005 42.077C18.9065 42.077 18.3712 41.9487 17.8945 41.692C17.4178 41.4353 17.0438 41.0797 16.7725 40.625C16.5085 40.163 16.3765 39.6423 16.3765 39.063C16.3765 38.4837 16.5085 37.9667 16.7725 37.512C17.0438 37.0573 17.4178 36.7017 17.8945 36.445C18.3712 36.1883 18.9065 36.06 19.5005 36.06C20.1018 36.06 20.6408 36.1883 21.1175 36.445C21.5942 36.7017 21.9645 37.0573 22.2285 37.512C22.4998 37.9667 22.6355 38.4837 22.6355 39.063C22.6355 39.6423 22.4998 40.163 22.2285 40.625C21.9645 41.0797 21.5942 41.4353 21.1175 41.692C20.6408 41.9487 20.1018 42.077 19.5005 42.077ZM19.5005 40.9C20.0065 40.9 20.4245 40.7313 20.7545 40.394C21.0845 40.0567 21.2495 39.613 21.2495 39.063C21.2495 38.513 21.0845 38.0693 20.7545 37.732C20.4245 37.3947 20.0065 37.226 19.5005 37.226C18.9945 37.226 18.5765 37.3947 18.2465 37.732C17.9238 38.0693 17.7625 38.513 17.7625 39.063C17.7625 39.613 17.9238 40.0567 18.2465 40.394C18.5765 40.7313 18.9945 40.9 19.5005 40.9ZM27.4813 41.681C27.32 41.813 27.122 41.912 26.8873 41.978C26.66 42.044 26.418 42.077 26.1613 42.077C25.516 42.077 25.0173 41.9083 24.6653 41.571C24.3133 41.2337 24.1373 40.7423 24.1373 40.097V37.27H23.1693V36.17H24.1373V34.828H25.5123V36.17H27.0853V37.27H25.5123V40.064C25.5123 40.35 25.582 40.57 25.7213 40.724C25.8607 40.8707 26.0623 40.944 26.3263 40.944C26.6343 40.944 26.891 40.8633 27.0963 40.702L27.4813 41.681ZM31.0591 42.077C30.4651 42.077 29.9298 41.9487 29.4531 41.692C28.9764 41.4353 28.6024 41.0797 28.3311 40.625C28.0671 40.163 27.9351 39.6423 27.9351 39.063C27.9351 38.4837 28.0671 37.9667 28.3311 37.512C28.6024 37.0573 28.9764 36.7017 29.4531 36.445C29.9298 36.1883 30.4651 36.06 31.0591 36.06C31.6604 36.06 32.1994 36.1883 32.6761 36.445C33.1528 36.7017 33.5231 37.0573 33.7871 37.512C34.0584 37.9667 34.1941 38.4837 34.1941 39.063C34.1941 39.6423 34.0584 40.163 33.7871 40.625C33.5231 41.0797 33.1528 41.4353 32.6761 41.692C32.1994 41.9487 31.6604 42.077 31.0591 42.077ZM31.0591 40.9C31.5651 40.9 31.9831 40.7313 32.3131 40.394C32.6431 40.0567 32.8081 39.613 32.8081 39.063C32.8081 38.513 32.6431 38.0693 32.3131 37.732C31.9831 37.3947 31.5651 37.226 31.0591 37.226C30.5531 37.226 30.1351 37.3947 29.8051 37.732C29.4824 38.0693 29.3211 38.513 29.3211 39.063C29.3211 39.613 29.4824 40.0567 29.8051 40.394C30.1351 40.7313 30.5531 40.9 31.0591 40.9Z" fill="black" fill-opacity="0.9"/>
<path d="M29 19C29 19.5304 28.7893 20.0391 28.4142 20.4142C28.0391 20.7893 27.5304 21 27 21H9C8.46957 21 7.96086 20.7893 7.58579 20.4142C7.21071 20.0391 7 19.5304 7 19V8C7 7.46957 7.21071 6.96086 7.58579 6.58579C7.96086 6.21071 8.46957 6 9 6H13L15 3H21L23 6H27C27.5304 6 28.0391 6.21071 28.4142 6.58579C28.7893 6.96086 29 7.46957 29 8V19Z" stroke="black" stroke-width="2" stroke-linecap="round" stroke-linejoin="round"/>
<path d="M18 17C20.2091 17 22 15.2091 22 13C22 10.7909 20.2091 9 18 9C15.7909 9 14 10.7909 14 13C14 15.2091 15.7909 17 18 17Z" stroke="black" stroke-width="2" stroke-linecap="round" stroke-linejoin="round"/>
</svg>
