<svg width="20" height="20" viewBox="0 0 20 20" fill="none" xmlns="http://www.w3.org/2000/svg">
<path d="M7.20948 4.7098L9.85386 7.3542C10.0491 7.5494 10.3657 7.5494 10.561 7.3542C10.7562 7.1589 10.7562 6.8423 10.561 6.6471L7.09263 3.1787C7.00091 3.0695 6.86331 3 6.70948 3H6.70782C6.62913 3 6.55044 3.0184 6.4788 3.0553C6.43367 3.0785 6.39133 3.109 6.35353 3.1467L6.34355 3.157L2.85348 6.6471C2.65822 6.8423 2.65822 7.1589 2.85348 7.3542C3.04874 7.5495 3.36532 7.5495 3.56059 7.3542L6.20948 4.7053V16.5C6.20948 16.7761 6.43334 17 6.70948 17C6.98562 17 7.20948 16.7761 7.20948 16.5V4.7098ZM9.49992 16C9.22378 16 8.99992 15.7761 8.99992 15.5C8.99992 15.2239 9.22378 15 9.49992 15H16.4999C16.7761 15 16.9999 15.2239 16.9999 15.5C16.9999 15.7761 16.7761 16 16.4999 16H9.49992ZM9.49992 13C9.22378 13 8.99992 12.7761 8.99992 12.5C8.99992 12.2239 9.22378 12 9.49992 12H14.4999C14.7761 12 14.9999 12.2239 14.9999 12.5C14.9999 12.7761 14.7761 13 14.4999 13H9.49992ZM9.49992 10C9.22378 10 8.99992 9.7761 8.99992 9.5C8.99992 9.2239 9.22378 9 9.49992 9H11.4999C11.7761 9 11.9999 9.2239 11.9999 9.5C11.9999 9.7761 11.7761 10 11.4999 10H9.49992Z" fill="white"/>
</svg>
