<svg
    width="128"
    height="53"
    viewBox="0 0 128 53"
    fill="none"
    xmlns="http://www.w3.org/2000/svg"
>
    <path
        fill-rule="evenodd"
        clip-rule="evenodd"
        d="M127.077 27.2434C127.077 18.3841 122.732 11.3936 114.427 11.3936C106.087 11.3936 101.041 18.3841 101.041 27.1742C101.041 37.5909 106.998 42.8511 115.548 42.8511C119.718 42.8511 122.872 41.9167 125.255 40.6016V33.6803C122.872 34.8569 120.139 35.5837 116.67 35.5837C113.27 35.5837 110.257 34.407 109.871 30.3234H127.007C127.007 29.8736 127.077 28.074 127.077 27.2434ZM109.766 23.9558C109.766 20.0452 112.184 18.4187 114.392 18.4187C116.529 18.4187 118.807 20.0452 118.807 23.9558H109.766Z"
        fill="#75707B"
    />
    <path
        fill-rule="evenodd"
        clip-rule="evenodd"
        d="M87.5138 11.3936C84.0796 11.3936 81.8719 12.9855 80.6454 14.0929L80.1899 11.9473H72.4805V52.2987L81.2412 50.4646L81.2762 40.6709C82.5377 41.5706 84.395 42.8511 87.4788 42.8511C93.7514 42.8511 99.4634 37.8677 99.4634 26.8974C99.4283 16.8614 93.6463 11.3936 87.5138 11.3936ZM85.4112 35.2376C83.3437 35.2376 82.1172 34.5109 81.2762 33.6111L81.2412 20.772C82.1523 19.7684 83.4138 19.0763 85.4112 19.0763C88.6001 19.0763 90.8078 22.6061 90.8078 27.1396C90.8078 31.7769 88.6352 35.2376 85.4112 35.2376Z"
        fill="#75707B"
    />
    <path
        fill-rule="evenodd"
        clip-rule="evenodd"
        d="M60.4258 9.35194L69.2215 7.48318V0.458008L60.4258 2.29217V9.35194Z"
        fill="#75707B"
    />
    <path
        d="M69.2215 11.9824H60.4258V42.2633H69.2215V11.9824Z"
        fill="#75707B"
    />
    <path
        fill-rule="evenodd"
        clip-rule="evenodd"
        d="M50.9991 14.5426L50.4384 11.9817H42.8691V42.2626H51.6298V21.7408C53.6974 19.0761 57.2016 19.5606 58.288 19.9413V11.9817C57.1666 11.5665 53.0666 10.8051 50.9991 14.5426Z"
        fill="#75707B"
    />
    <path
        fill-rule="evenodd"
        clip-rule="evenodd"
        d="M33.478 4.47266L24.9276 6.27221L24.8926 33.9922C24.8926 39.114 28.7823 42.8861 33.9687 42.8861C36.8422 42.8861 38.9447 42.367 40.1011 41.7441V34.719C38.9798 35.1688 33.443 36.7607 33.443 31.639V19.3536H40.1011V11.9823H33.443L33.478 4.47266Z"
        fill="#75707B"
    />
    <path
        fill-rule="evenodd"
        clip-rule="evenodd"
        d="M9.78915 20.772C9.78915 19.4223 10.9105 18.9032 12.7678 18.9032C15.431 18.9032 18.7951 19.6992 21.4584 21.118V12.9855C18.5498 11.8434 15.6763 11.3936 12.7678 11.3936C5.65411 11.3936 0.92334 15.0619 0.92334 21.1873C0.92334 30.7387 14.2396 29.216 14.2396 33.3342C14.2396 34.9261 12.8379 35.4452 10.8755 35.4452C7.96693 35.4452 4.2524 34.2686 1.30881 32.6767V40.9131C4.56778 42.2974 7.8618 42.8857 10.8755 42.8857C18.1644 42.8857 23.1755 39.3212 23.1755 33.1266C23.1404 22.8138 9.78915 24.6479 9.78915 20.772Z"
        fill="#75707B"
    />
</svg>