<svg width="25" height="20" viewBox="0 0 25 20" fill="none" xmlns="http://www.w3.org/2000/svg">
<g clip-path="url(#clip0_7040_13167)">
<path d="M7.74836 19.9687C17.0063 19.9687 22.0691 12.299 22.0691 5.64797C22.0691 5.43015 22.0647 5.21331 22.0549 4.99738C23.0399 4.28462 23.8901 3.40205 24.5655 2.39106C23.6637 2.79197 22.6932 3.06182 21.6752 3.18349C22.7143 2.56031 23.5121 1.57467 23.8884 0.399602C22.9004 0.985758 21.8195 1.39894 20.6924 1.62135C19.7739 0.643029 18.4664 0.0311279 17.0184 0.0311279C14.2389 0.0311279 11.9849 2.28519 11.9849 5.06365C11.9849 5.45863 12.0291 5.84283 12.1155 6.2113C7.93226 6.00081 4.22291 3.99799 1.7404 0.952561C1.29328 1.72062 1.05809 2.5936 1.05886 3.48232C1.05886 5.22854 1.94744 6.77011 3.29868 7.67195C2.49941 7.64757 1.71768 7.43168 1.01918 7.04243C1.01844 7.06359 1.01844 7.08417 1.01844 7.10672C1.01844 9.54428 2.75338 11.5795 5.05642 12.0406C4.62387 12.1584 4.17753 12.218 3.72922 12.2178C3.41174 12.2176 3.09499 12.1872 2.78326 12.127C3.42405 14.1268 5.28215 15.5821 7.48509 15.6228C5.76242 16.973 3.59232 17.7772 1.23379 17.7772C0.828024 17.7772 0.427197 17.7542 0.0332031 17.7076C2.26076 19.1354 4.90577 19.9685 7.7486 19.9685" fill="white"/>
</g>
<defs>
<clipPath id="clip0_7040_13167">
<rect width="24.5981" height="20" fill="white"/>
</clipPath>
</defs>
</svg>
