<svg width="21" height="21" viewBox="0 0 21 21" fill="none" xmlns="http://www.w3.org/2000/svg">
<path fill-rule="evenodd" clip-rule="evenodd" d="M10.1357 19.8042C15.1063 19.8042 19.1357 15.7748 19.1357 10.8042C19.1357 5.83364 15.1063 1.8042 10.1357 1.8042C5.16518 1.8042 1.13574 5.83364 1.13574 10.8042C1.13574 15.7748 5.16518 19.8042 10.1357 19.8042ZM10.1357 20.8042C15.6586 20.8042 20.1357 16.327 20.1357 10.8042C20.1357 5.28135 15.6586 0.804199 10.1357 0.804199C4.61289 0.804199 0.135742 5.28135 0.135742 10.8042C0.135742 16.327 4.61289 20.8042 10.1357 20.8042ZM10.5 10.1958H16V11.1958H10.5V16.6958H9.5V11.1958H4V10.1958H9.5V4.6958H10.5V10.1958Z" fill="#442671"/>
</svg>
