<svg width="20" height="20" viewBox="0 0 20 20" fill="none" xmlns="http://www.w3.org/2000/svg">
<circle cx="10" cy="10" r="9.5" stroke="#E32D26"/>
<path d="M10.4395 12.24H9.34961V6.46851H10.4395V12.24ZM9.24414 14.4314C9.24414 14.2439 9.29883 14.0876 9.4082 13.9626C9.52148 13.8376 9.68945 13.7751 9.91211 13.7751C10.1348 13.7751 10.3027 13.8376 10.416 13.9626C10.5332 14.0876 10.5918 14.2439 10.5918 14.4314C10.5918 14.6111 10.5332 14.7615 10.416 14.8826C10.3027 15.0037 10.1348 15.0642 9.91211 15.0642C9.68945 15.0642 9.52148 15.0037 9.4082 14.8826C9.29883 14.7615 9.24414 14.6111 9.24414 14.4314Z" fill="#E32D26"/>
</svg>
