<svg width="74" height="45" viewBox="0 0 74 18" fill="none" xmlns="http://www.w3.org/2000/svg">
    <path d="M73.6557 7.95667C73.6557 3.6977 70.6886 0.702227 66.529 0.702227C61.2337 0.702227 57.6846 4.5495 57.6846 10.0436C57.6846 14.3309 60.68 17.298 64.9106 17.298C68.7579 17.298 71.6256 15.4383 72.8039 12.4712H68.5307C67.9629 13.394 66.7562 13.976 65.2797 13.976C63.0083 13.976 61.5886 12.4712 61.4609 10.3417H73.4144C73.5705 9.53249 73.6557 8.83686 73.6557 7.95667ZM61.7874 7.45979C62.1707 5.50067 64.073 3.93904 66.3729 3.93904C68.3604 3.93904 69.8652 5.38709 69.8652 7.45979H61.7874Z" fill="#2E4369"/>
    <path d="M46.1995 16.9147L46.9661 12.8261C49.3085 13.2946 49.6634 11.9743 50.2739 8.79427L50.572 7.21845C51.4238 2.77492 53.1416 0.56026 58.0536 1.15652L57.287 5.24513C54.9445 4.77664 54.5328 6.55121 54.0076 9.30535L53.7094 10.8812C52.8577 15.3815 51.0831 17.511 46.1995 16.9147Z" fill="#2E4369"/>
    <path d="M40.4641 16.9289L43.3602 1.08553H47.1791L44.2972 16.9289H40.4641Z" fill="#2E4369"/>
    <path d="M18.5872 1.08553H22.2925L23.4992 12.5422L28.3544 1.08553H32.0313L33.3232 12.6557L38.0081 1.08553H41.6992L34.9842 16.9289H30.782L29.4191 6.02594L24.7769 16.9289H20.7166L18.5872 1.08553Z" fill="#2E4369"/>
    <path d="M4.74542 5.28772L0.344482 9.4899H7.82607L8.60689 7.65855H4.8164L7.18723 5.28772L5.81016 2.91689H12.2412L6.30704 16.9289H8.5359L15.2509 1.08553H2.27522L4.74542 5.28772Z" fill="#00B9FF"/>
</svg>
