<svg width="81" height="76" viewBox="0 0 81 76" fill="none" xmlns="http://www.w3.org/2000/svg">
<g clip-path="url(#clip0_13198_28240)">
<path d="M2.25 31.5227V74.4772" stroke="#442671" stroke-width="2" stroke-miterlimit="10"/>
<path d="M2.00391 41.0681L17.0456 36.2954H45.682C46.9478 36.2954 48.1618 36.7982 49.0568 37.6933C49.9519 38.5884 50.4547 39.8023 50.4547 41.0681C50.4547 42.3339 49.9519 43.5479 49.0568 44.443C48.1618 45.338 46.9478 45.8409 45.682 45.8409H21.8184" stroke="#442671" stroke-width="2" stroke-miterlimit="10"/>
<path d="M2.72705 64.9319L12.2725 55.3864H50.4543L77.4446 37.6672C77.9598 37.2378 78.3743 36.7004 78.6587 36.093C78.9432 35.4857 79.0907 34.8232 79.0907 34.1525V34.1525C79.0907 33.3727 78.8914 32.6058 78.5116 31.9246C78.1318 31.2435 77.5842 30.6707 76.9208 30.2607C76.2575 29.8507 75.5003 29.6171 74.7212 29.582C73.9421 29.547 73.167 29.7116 72.4695 30.0604L50.4543 41.0682" stroke="#442671" stroke-width="2" stroke-miterlimit="10"/>
<path d="M40.9092 21.9774C46.181 21.9774 50.4547 17.7037 50.4547 12.4319C50.4547 7.16012 46.181 2.88647 40.9092 2.88647C35.6374 2.88647 31.3638 7.16012 31.3638 12.4319C31.3638 17.7037 35.6374 21.9774 40.9092 21.9774Z" stroke="#442671" stroke-width="2" stroke-miterlimit="10"/>
</g>
<defs>
<clipPath id="clip0_13198_28240">
<rect width="80.1136" height="75" fill="white" transform="translate(0 0.5)"/>
</clipPath>
</defs>
</svg>
