<svg width="75" height="76" viewBox="0 0 75 76" fill="none" xmlns="http://www.w3.org/2000/svg">
<g clip-path="url(#clip0_13198_28167)">
<path d="M6.87518 48.6506H1.1543V67.0349H6.87518V48.6506Z" stroke="#442671" stroke-width="2" stroke-miterlimit="10"/>
<path d="M73.8459 48.6506H68.125V67.0349H73.8459V48.6506Z" stroke="#442671" stroke-width="2" stroke-miterlimit="10"/>
<path d="M66.5097 41.6479H54.4279C53.5357 41.6479 52.8125 42.3712 52.8125 43.2633V72.4226C52.8125 73.3148 53.5357 74.038 54.4279 74.038H66.5097C67.4019 74.038 68.1251 73.3148 68.1251 72.4226V43.2633C68.1251 42.3712 67.4019 41.6479 66.5097 41.6479Z" stroke="#442671" stroke-width="2" stroke-miterlimit="10"/>
<path d="M20.5722 41.6479H8.49038C7.59823 41.6479 6.875 42.3712 6.875 43.2633V72.4226C6.875 73.3148 7.59823 74.038 8.49038 74.038H20.5722C21.4644 74.038 22.1876 73.3148 22.1876 72.4226V43.2633C22.1876 42.3712 21.4644 41.6479 20.5722 41.6479Z" stroke="#442671" stroke-width="2" stroke-miterlimit="10"/>
<path d="M58.947 16.7452C56.3777 13.5232 53.1154 10.9215 49.4024 9.13338C45.6895 7.34528 41.6214 6.41675 37.5004 6.41675C33.3793 6.41675 29.3112 7.34528 25.5983 9.13338C21.8854 10.9215 18.6231 13.5232 16.0537 16.7452" stroke="#442671" stroke-width="2" stroke-miterlimit="10"/>
<path d="M5.18359 48.6506V34.2781C5.18359 25.7073 8.58833 17.4876 14.6488 11.4271C20.7092 5.36664 28.929 1.96191 37.4998 1.96191C46.0706 1.96191 54.2903 5.36664 60.3508 11.4271C66.4112 17.4876 69.816 25.7073 69.816 34.2781V48.6506" stroke="#442671" stroke-width="2" stroke-miterlimit="10"/>
</g>
<defs>
<clipPath id="clip0_13198_28167">
<rect width="75" height="75" fill="white" transform="translate(0 0.5)"/>
</clipPath>
</defs>
</svg>
