<svg width="75" height="76" viewBox="0 0 75 76" fill="none" xmlns="http://www.w3.org/2000/svg">
<g clip-path="url(#clip0_13198_28189)">
<path d="M47.1633 63.8578C51.7553 63.8578 55.4779 60.1352 55.4779 55.5431C55.4779 50.9511 51.7553 47.2285 47.1633 47.2285C42.5712 47.2285 38.8486 50.9511 38.8486 55.5431C38.8486 60.1352 42.5712 63.8578 47.1633 63.8578Z" stroke="#442671" stroke-width="2" stroke-miterlimit="10"/>
<path d="M55.4775 56.3613V15.3232L66.5025 13.5085" stroke="#442671" stroke-width="2" stroke-miterlimit="10"/>
<path d="M46.6306 24.3044H19.2393" stroke="#442671" stroke-width="2" stroke-miterlimit="10"/>
<path d="M46.6306 38H19.2393" stroke="#442671" stroke-width="2" stroke-miterlimit="10"/>
<path d="M32.9349 51.6956H19.2393" stroke="#442671" stroke-width="2" stroke-miterlimit="10"/>
<path d="M72.1959 1.47827H2.8046C1.79608 1.47827 0.978516 2.29584 0.978516 3.30436V72.6957C0.978516 73.7042 1.79608 74.5218 2.8046 74.5218H72.1959C73.2044 74.5218 74.022 73.7042 74.022 72.6957V3.30436C74.022 2.29584 73.2044 1.47827 72.1959 1.47827Z" stroke="#442671" stroke-width="2" stroke-miterlimit="10"/>
</g>
<defs>
<clipPath id="clip0_13198_28189">
<rect width="75" height="75" fill="white" transform="translate(0 0.5)"/>
</clipPath>
</defs>
</svg>
