<svg width="40" height="40" viewBox="0 0 40 40" fill="none" xmlns="http://www.w3.org/2000/svg"><path d="M14.6667 28.0002V10.6669L29.3334 8.00024V24.0002" stroke="#442671" stroke-miterlimit="10"></path><path d="M10.6667 32.0002C12.8759 32.0002 14.6667 30.2094 14.6667 28.0002C14.6667 25.7911 12.8759 24.0002 10.6667 24.0002C8.45761 24.0002 6.66675 25.7911 6.66675 28.0002C6.66675 30.2094 8.45761 32.0002 10.6667 32.0002Z" stroke="#442671" stroke-miterlimit="10"></path><path d="M25.3333 28.0002C27.5424 28.0002 29.3333 26.2094 29.3333 24.0002C29.3333 21.7911 27.5424 20.0002 25.3333 20.0002C23.1241 20.0002 21.3333 21.7911 21.3333 24.0002C21.3333 26.2094 23.1241 28.0002 25.3333 28.0002Z" stroke="#442671" stroke-miterlimit="10"></path></svg>