<?xml version="1.0" standalone="no"?>
<!DOCTYPE svg PUBLIC "-//W3C//DTD SVG 20010904//EN"
 "http://www.w3.org/TR/2001/REC-SVG-20010904/DTD/svg10.dtd">
<svg version="1.0" xmlns="http://www.w3.org/2000/svg"
 width="1440.000000pt" height="1440.000000pt" viewBox="0 0 1440.000000 1440.000000"
 preserveAspectRatio="xMidYMid meet">
<metadata>
Created by potrace 1.14, written by Peter Selinger 2001-2017
</metadata>
<g transform="translate(0.000000,1440.000000) scale(0.100000,-0.100000)"
fill="#000000" stroke="none">
<path d="M0 7200 l0 -7200 7200 0 7200 0 0 7200 0 7200 -7200 0 -7200 0 0
-7200z m7495 5080 c299 -19 578 -59 841 -119 1494 -346 2739 -1323 3421 -2686
761 -1519 709 -3329 -136 -4805 -113 -197 -362 -569 -381 -570 -3 0 -110 105
-239 234 l-233 233 86 126 c439 639 699 1374 766 2162 13 154 13 535 0 690
-92 1096 -557 2079 -1342 2841 -711 688 -1609 1107 -2621 1221 -213 24 -703
24 -912 -1 -556 -64 -1009 -196 -1490 -431 -454 -222 -824 -486 -1179 -841
-1027 -1027 -1482 -2462 -1236 -3899 104 -604 355 -1219 714 -1745 l86 -125
-233 -232 c-127 -128 -234 -233 -238 -233 -8 0 -132 171 -225 312 -273 414
-488 880 -629 1368 -290 1002 -269 2038 60 3025 400 1202 1205 2182 2315 2821
826 474 1853 714 2805 654z m105 -2315 c350 -55 688 -170 972 -331 913 -516
1458 -1482 1425 -2524 -12 -344 -71 -629 -198 -950 -52 -132 -187 -401 -204
-407 -6 -2 -118 105 -249 236 l-240 240 43 90 c141 304 209 687 183 1024 -23
292 -90 536 -217 795 -438 895 -1444 1367 -2410 1133 -886 -215 -1532 -958
-1626 -1868 -14 -143 -7 -409 16 -543 33 -194 90 -385 166 -549 l40 -85 -240
-240 c-192 -192 -242 -237 -253 -228 -23 18 -152 278 -201 402 -94 236 -153
474 -183 736 -20 172 -14 545 10 699 98 606 351 1120 755 1538 457 472 1032
757 1701 843 144 18 567 12 710 -11z m1512 -4212 c1050 -1050 1908 -1913 1908
-1920 0 -21 -378 -394 -517 -511 -898 -753 -1948 -1164 -3100 -1211 -1386 -57
-2746 463 -3740 1432 -80 78 -177 177 -216 220 l-70 79 1909 1909 c1050 1050
1911 1909 1914 1909 3 0 863 -858 1912 -1907z"/>
<path d="M5755 5280 l-1440 -1440 39 -32 c692 -578 1498 -920 2401 -1020 162
-18 739 -18 900 0 724 81 1406 326 1990 715 175 117 329 232 413 311 l33 30
-1438 1438 c-791 791 -1442 1438 -1448 1438 -6 0 -658 -648 -1450 -1440z"/>
</g>
</svg>
