<svg width="122" height="36" viewBox="0 0 122 36" fill="none" xmlns="http://www.w3.org/2000/svg">
<g clip-path="url(#clip0_13198_28306)">
<path d="M25.6725 22.3602C25.6725 27.4286 21.7039 31.5279 16.6329 31.5279C11.6354 31.5279 7.66675 27.5404 7.66675 22.3602C7.66675 19.9379 8.58541 17.7764 10.0185 16.1739L3.91862 22.3602L0.72168 19.0807L7.59326 12.1863C8.51192 11.2547 8.98962 10.0248 8.98962 8.64596V0H13.5094V8.68323C13.5094 11.3292 12.5908 13.6025 10.7534 15.4286L10.5697 15.6149C12.1498 14.1242 14.3178 13.2298 16.6329 13.2298C21.7774 13.2298 25.6725 17.3665 25.6725 22.3602ZM21.5936 22.3602C21.5936 19.6398 19.3889 17.441 16.6696 17.441C13.9136 17.441 11.7456 19.7516 11.7456 22.3602C11.7456 25.0435 13.9136 27.3168 16.6329 27.3168C19.4623 27.3168 21.5936 24.9689 21.5936 22.3602Z" fill="black"/>
<path d="M40.4815 13.4536C42.3923 13.4536 43.8254 13.8636 44.8911 14.6462C45.92 15.466 46.4712 16.584 46.4712 18.0002C46.4712 19.0437 46.1772 19.9008 45.626 20.6089C45.0748 21.2797 44.2664 21.7269 43.2375 21.9878C45.8097 22.435 47.1326 23.8139 47.1326 26.1244C47.1326 27.6524 46.5814 28.8449 45.479 29.7021C44.3766 30.5592 42.7965 31.0064 40.7387 31.0064H34.1611V13.4909H40.4815V13.4536ZM36.9906 20.8698H40.555C41.5104 20.8698 42.2821 20.6462 42.7965 20.199C43.3477 19.7518 43.605 19.1182 43.605 18.3356C43.605 17.553 43.3477 16.9195 42.7965 16.5095C42.2453 16.0623 41.5104 15.8387 40.555 15.8387H36.9906V20.8698ZM36.9906 28.5468H40.7387C41.8411 28.5468 42.723 28.3232 43.311 27.876C43.8989 27.4288 44.2296 26.7952 44.2296 25.9754C44.2296 25.1182 43.9357 24.4474 43.311 24.0002C42.6863 23.5157 41.8411 23.2921 40.7387 23.2921H36.9906V28.5468Z" fill="black"/>
<path d="M48.4553 21.1304C48.9697 20.1242 49.7046 19.3789 50.6233 18.8199C51.542 18.2609 52.6076 18 53.8202 18C55.0329 18 56.0985 18.2609 57.0539 18.7453C57.9726 19.2298 58.7075 19.9379 59.2587 20.8696C59.8099 21.8012 60.0671 22.882 60.1039 24.1118C60.1039 24.4472 60.0671 24.7826 60.0304 25.1553H50.5131V25.3043C50.5866 26.4224 50.9173 27.3168 51.542 27.9503C52.1667 28.5839 53.0118 28.9193 54.0407 28.9193C54.8491 28.9193 55.5473 28.7329 56.0985 28.323C56.6497 27.913 57.0172 27.3913 57.2009 26.646H59.8834C59.6629 27.9503 59.0382 29.0311 58.0093 29.8509C56.9804 30.6708 55.7311 31.118 54.2245 31.118C52.9016 31.118 51.7624 30.8571 50.7703 30.2981C49.7781 29.7391 49.0432 28.9938 48.492 28.0248C47.9408 27.0559 47.6836 25.9006 47.6836 24.5963C47.6836 23.2919 47.9408 22.1366 48.4553 21.1304ZM57.3479 23.1801C57.2377 22.2484 56.8702 21.5031 56.2455 20.9814C55.6208 20.4596 54.8491 20.1988 53.8937 20.1988C53.0118 20.1988 52.2769 20.4596 51.6522 21.0186C51.0275 21.5776 50.6601 22.2857 50.5498 23.1801H57.3479Z" fill="black"/>
<path d="M73.0015 28.6211V30.9689H71.6051C70.7967 30.9689 70.172 30.7826 69.8413 30.4472C69.4738 30.1118 69.2901 29.5901 69.2901 28.9193C68.3347 30.3727 66.9383 31.118 65.101 31.118C63.6679 31.118 62.5655 30.7826 61.6836 30.1118C60.8384 29.441 60.3975 28.5093 60.3975 27.354C60.3975 26.0497 60.8752 25.0062 61.7938 24.2981C62.7125 23.5901 64.0721 23.2174 65.8359 23.2174H69.0329V22.4348C69.0329 21.7267 68.7756 21.1677 68.2979 20.7578C67.8202 20.3478 67.1221 20.1615 66.2401 20.1615C65.4685 20.1615 64.8438 20.3478 64.3293 20.6832C63.8149 21.0186 63.5209 21.4658 63.4107 22.0621H60.8017C60.9487 20.795 61.4999 19.7888 62.492 19.0807C63.4842 18.3727 64.7703 18 66.3871 18C68.0775 18 69.4003 18.4099 70.319 19.1925C71.2377 20.0124 71.7154 21.1304 71.7154 22.6584V27.7267C71.7154 28.323 72.0093 28.6211 72.5605 28.6211H73.0015ZM68.9961 25.2671H65.6889C64.8805 25.2671 64.2191 25.4161 63.7781 25.7516C63.3372 26.087 63.1167 26.5714 63.1167 27.205C63.1167 27.764 63.3372 28.2112 63.7414 28.5466C64.1456 28.882 64.7335 29.0311 65.4685 29.0311C66.5709 29.0311 67.416 28.7329 68.0407 28.1366C68.6654 27.5404 68.9594 26.7205 68.9961 25.7143V25.2671Z" fill="black"/>
<path d="M74.031 20.534H71.8262V18.1489H74.031V14.5713H76.7134V18.1489H79.7634V20.534H76.7134V27.2048C76.7134 27.6893 76.8237 28.062 77.0074 28.2856C77.1912 28.5092 77.5586 28.5837 78.0363 28.5837H80.0574V30.9688H77.4851C76.2725 30.9688 75.3906 30.6707 74.8394 30.1117C74.2882 29.5527 73.9942 28.6582 73.9942 27.4657V20.534H74.031Z" fill="black"/>
<path d="M90.6397 18.7826C91.5583 19.3043 92.2565 20.087 92.771 21.0559C93.2854 22.0621 93.5426 23.2174 93.5426 24.559C93.5426 25.8634 93.2854 27.0186 92.771 27.9876C92.2565 28.9938 91.5583 29.7391 90.6397 30.2981C89.721 30.8571 88.6921 31.118 87.553 31.118C86.5976 31.118 85.7891 30.9317 85.091 30.5963C84.3928 30.2609 83.8416 29.7764 83.4374 29.1801V36H80.7549V18.1491H83.0699L83.4006 20.0497C84.4295 18.6708 85.7891 18 87.5162 18C88.6921 18 89.721 18.2609 90.6397 18.7826ZM89.7578 27.6522C90.4559 26.8323 90.7867 25.8261 90.7867 24.559C90.7867 23.2919 90.4559 22.2484 89.7578 21.4658C89.0596 20.6832 88.1777 20.2733 87.0753 20.2733C85.9729 20.2733 85.091 20.646 84.3928 21.4286C83.7313 22.2112 83.3639 23.2174 83.3639 24.4845C83.3639 25.7888 83.6946 26.795 84.3928 27.6149C85.0542 28.4348 85.9729 28.8075 87.0753 28.8075C88.2144 28.8447 89.0963 28.4348 89.7578 27.6522Z" fill="black"/>
<path d="M97.4012 30.2981C96.409 29.7391 95.6741 28.9938 95.1229 27.9876C94.5717 26.9814 94.3145 25.8634 94.3145 24.559C94.3145 23.2919 94.5717 22.1366 95.1229 21.1304C95.6741 20.1242 96.409 19.3789 97.4012 18.8199C98.3933 18.2609 99.4957 18 100.782 18C102.031 18 103.17 18.2609 104.162 18.8199C105.155 19.3789 105.89 20.1615 106.441 21.1304C106.992 22.1366 107.249 23.2547 107.249 24.559C107.249 25.8634 106.992 27.0186 106.441 27.9876C105.89 28.9938 105.155 29.7391 104.162 30.2981C103.17 30.8571 102.068 31.118 100.782 31.118C99.4957 31.118 98.3933 30.8571 97.4012 30.2981ZM103.464 27.6522C104.162 26.8696 104.493 25.8261 104.493 24.5963C104.493 23.3665 104.162 22.323 103.464 21.5404C102.766 20.7578 101.884 20.3478 100.745 20.3478C99.6427 20.3478 98.724 20.7578 98.0626 21.5404C97.4011 22.323 97.0337 23.3665 97.0337 24.5963C97.0337 25.8261 97.3644 26.8696 98.0626 27.6522C98.724 28.4348 99.6427 28.8447 100.745 28.8447C101.884 28.8075 102.803 28.4348 103.464 27.6522Z" fill="black"/>
<path d="M115.114 18.1489V20.6831H113.938C112.835 20.6831 112.027 21.0558 111.549 21.7638C111.072 22.4719 110.814 23.4036 110.814 24.5216V30.9688H108.132V18.1489H110.52L110.814 20.0868C111.182 19.4905 111.659 19.0061 112.211 18.6707C112.799 18.3353 113.57 18.1489 114.526 18.1489H115.114Z" fill="black"/>
<path d="M115.995 14.5713H118.678V18.1489H121.728V20.534H118.678V27.2048C118.678 27.6893 118.788 28.062 118.972 28.2856C119.155 28.5092 119.523 28.5837 120 28.5837H122.022V30.9688H119.449C118.237 30.9688 117.391 30.6707 116.84 30.1117C116.289 29.5527 116.032 28.6582 116.032 27.4657V14.5713H115.995Z" fill="black"/>
</g>
<defs>
<clipPath id="clip0_13198_28306">
<rect width="121.263" height="36" fill="white" transform="translate(0.72168)"/>
</clipPath>
</defs>
</svg>
