<svg height="27" viewBox="0 0 213 27" width="213" xmlns="http://www.w3.org/2000/svg">
    <g>
        <path d="m205.230156 19.4717717c.639024 0 1.225457-.1143648 1.758254-.3428856.532172-.2285209.996101-.5551283 1.390952-.9804484.39485-.4244853.698501-.9197182.910744-1.4859073.212869-.5670239.31972-1.1979084.31972-1.8955753 0-.6747104-.106851-1.3018384-.31972-1.878671-.202017-.55805-.511511-1.0693524-.910744-1.5028116-.391929-.4223983-.865458-.7563101-1.390952-.9798223-.532797-.2285208-1.11923-.3428856-1.758254-.3428856-.639858 0-1.226082.1143648-1.759088.3428856-.525494.2241383-.999023.557424-1.390117.9798223-.400068.4334592-.709562.9447616-.91137 1.5028116-.213078.5768326-.319929 1.2039606-.319929 1.878671 0 .6976669.106851 1.3285514.319929 1.8955753.212242.5661891.51652 1.061422.91137 1.4859073.394851.4253201.857945.7519275 1.390117.9804484.533006.2285208 1.11923.3428856 1.759088.3428856zm8.152456 3.3977608h-4.028645v-2.090705c-.46852.7836492-1.097735 1.4049337-1.885976 1.8621841-.78824.4572504-1.790184.6857713-3.005206.6857713-1.087508 0-2.099052-.1907471-3.03797-.5714065-.924727-.372729-1.759715-.9470572-2.445487-1.6827065-.714779-.7778057-1.269908-1.6943935-1.630741-2.6957114-.394851-1.0568307-.591441-2.2584956-.591441-3.6100034 0-1.3508817.218921-2.5531727.655301-3.6102121.402364-1.001944.988588-1.91707088 1.727159-2.69487657.689528-.72375373 1.516377-1.29599499 2.429208-1.68270654.875892-.37481595 1.816271-.56911085 2.765415-.57140649 1.258013 0 2.286044.20034705 3.085345.60417158.79951.40382452 1.443751.96417018 1.934393 1.68249784v-1.82941901h4.028645zm-18.127861-12.5782471c-.420102-.1550602-.863787-.2322773-1.310603-.2285208-.596867 0-1.135718.1195821-1.61509.3591638-.479372.2406252-.884031.5768326-1.215021 1.0132135-.330155.4357548-.579546.9470572-.751093 1.5349506-.170712.5885194-.256068 1.2208648-.256068 1.8955753v8.0038647h-4.028019v-16.20452869h4.028019v2.58051176c.448276-.93578768 1.039091-1.67728047 1.774532-2.22134793.735649-.54406747 1.615089-.81641424 2.637903-.81641424.490641 0 .947892.06532149 1.374464.19596446zm-13.20454 12.5782471h-4.028019v-10.030083c0-.9589528-.192208-1.7033673-.575998-2.2378348-.383581-.5344675-1.022605-.80013606-1.917905-.80013606-.895093 0-1.630533.33766826-2.206531 1.01237866-.575163.6747105-.863162 1.6879239-.863162 3.038597v9.0170782h-4.028019v-9.9647615c0-.9798223-.203269-1.7428107-.60772-2.2868781-.404659-.5440675-1.054743-.81641426-1.949835-.81641426-.788241 0-1.486743.33766826-2.094671 1.01237866-.607093.6747105-.910535 1.6662197-.910535 2.9732755v9.0823997h-4.028854v-16.20452869h4.028854v2.15602645c.596032-.93599639 1.305595-1.60528076 2.125557-2.00910528.770501-.39109414 1.618011-.59749334 2.478251-.60417158 1.171404 0 2.114705.24500775 2.829276.73481455.71478.4898068 1.241734 1.17119548 1.582533 2.04187037.575163-.95895281 1.315821-1.66121097 2.222183-2.10719186.880901-.4409722 1.848827-.66949306 2.829276-.66949306 1.662463 0 2.930284.48458943 3.804507 1.45397699.874431.96855278 1.310812 2.25849562 1.310812 3.87128941zm-34.27312-13.52593035c-1.0873 0-2.009731.32723352-2.765415.98044835-.75631.6532149-1.284099 1.4583596-1.583159 2.4173124h8.504941c-.192208-1.0449351-.644241-1.8732449-1.359021-2.4826339-.714571-.6093889-1.646811-.91512685-2.797346-.91512685zm-4.348574 6.40380135c.128347 1.2417343.587059 2.2265653 1.375299 2.9569973.787614.7295971 1.779124 1.0939783 2.973275 1.0939783 1.107544 0 2.002636-.2665033 2.685486-.800136.682849-.5344675 1.246743-1.2580125 1.694393-2.1725133l3.005206 1.7643062c-.74671 1.5890025-1.721106 2.7766849-2.925067 3.560334-1.203961.784484-2.712824 1.1765668-4.524504 1.1765668-1.073944.0065243-2.139122-.2042575-3.132927-.6206037-.966257-.4044506-1.846532-.9981874-2.589486-1.7478193-.759232-.7713362-1.361942-1.6870891-1.774741-2.6957113-.436381-1.0451438-.655302-2.2096611-.655302-3.4958474 0-1.2855602.218921-2.4500775.655302-3.4952213.43659-1.0455611 1.034709-1.94440985 1.790393-2.6955026.763615-.75568403 1.665385-1.35025565 2.653973-1.74802802 1.032413-.41780708 2.133904-.62858888 3.244996-.62044978 1.0681-.01252169 2.127852.19304273 3.117275.60417158.919509.38295504 1.75241.95603109 2.445486 1.68249784.682849.71853636 1.215021 1.57272438 1.598811 2.56444228.38379.9915092.575163 2.0752615.575163 3.2508396v1.4376988zm-15.729539-9.08239969h2.461764v-4.37841786h4.028019v4.37841786h3.452857v3.33243929h-3.452857v7.3836236c0 .8283099.181148 1.4159946.544068 1.7640976.362294.348103.851266.5225719 1.470255.5225719.29906 0 .554502-.0208695.76758-.0653215.212242-.0438259.40445-.086191.575163-.130643l.38379 3.3977608c-.36313.130643-.783232.2406251-1.262604.3266074-.480207.0868171-.954362.130643-1.422882.130643-.682849 0-1.331473-.0815997-1.950462-.2447991-.618154-.163408-1.162221-.4409722-1.630533-.8329011-.492102-.4253201-.871509-.9700136-1.102952-1.58462-.267338-.6649017-.399442-1.4978029-.399442-2.4997468v-8.1672728h-2.461764zm-10.678915 3.98565419c0 1.0011091 1.246743 1.7640975 3.740646 2.2866694 1.875541.3927637 3.229344.9804484 4.060576 1.7643062.831231.7844839 1.246951 1.8621841 1.246951 3.2345614 0 .7629884-.143999 1.4702552-.431998 2.1234701-.287164.6538409-.698293 1.2252474-1.230465 1.7152629-.532172.4904329-1.187682.8704662-1.966114 1.1436478-.851475.2842424-1.742811.4215636-2.637903.4082071-1.002779 0-1.891193-.1350256-2.669624-.4082071-.732728-.2485556-1.422882-.6123107-2.046253-1.0783263-.578294-.4380505-1.089596-.9612485-1.518673-1.5512288-.413424-.5649369-.756936-1.1795432-1.022813-1.8304625l3.228718-2.0907049c.34059 1.0242743.852101 1.8621841 1.53495 2.516025.682641.6532149 1.534742.9798223 2.557556.9798223.599789.0052174 1.189769-.1529733 1.71088-.4572504.522363-.3057379.783023-.7510927.783023-1.3396122 0-.5440675-.271721-.9685528-.814953-1.2736646-.544068-.305738-1.402012-.5768326-2.574042-.8172491-.742119-.1446255-1.46963-.3585377-2.173975-.6367279-.636102-.2456339-1.229838-.5931108-1.758254-1.0294917-.480207-.4006941-.876518-.8944661-1.167439-1.453977-.287372-.5551283-.431372-1.2039606-.431372-1.9437838 0-.7629883.164869-1.43707269.495024-2.02559216.331199-.58789338.76758-1.07770018 1.311647-1.47025518.543233-.39192892 1.171196-.69098864 1.885976-.89801392.722919-.20869485 1.47109-.31262488 2.222182-.31036645 1.726324 0 3.089728.33770547 4.092506 1.01241591 1.001944.67471043 1.822115 1.69898473 2.461139 3.0711533l-2.908789 1.7643063c-.34059-.8936314-.820171-1.5898374-1.43916-2.09070499-.607093-.49731982-1.364029-.76298836-2.142044-.75192753-.659684 0-1.226082.11436477-1.694393.34372041-.468311.22852085-.70351.59227601-.70351 1.09397841z"/>
        <path d="m73.3109515 19.4718552c.6390236 0 1.2260822-.1143648 1.758254-.3428857.5321719-.2285208.9961005-.5551282 1.3909512-.9804483.3948506-.4244854.6985016-.9197182.9107443-1.4867421.2128687-.5661891.3199292-1.1970736.3199292-1.8947405 0-.6747105-.1070605-1.3018385-.3199292-1.878671-.2011818-.55805-.5115111-1.0693524-.9107443-1.5028116-.3910942-.4223984-.8654575-.7563101-1.3909512-.9798223-.5321718-.2285209-1.1192304-.3428856-1.758254-.3428856-.6390237 0-1.2260823.1143647-1.7582541.3428856-.5254936.2241383-.9990222.5574239-1.3909512.9798223-.3992332.4334592-.7095624.9447616-.9113704 1.5028116-.2122426.5768325-.3193031 1.2039605-.3193031 1.878671 0 .6976669.1070605 1.3285514.3193031 1.8947405.2128688.5670239.5165198 1.0622567.9113704 1.4867421.3948507.4253201.8587793.7519275 1.3909512.9804483.5321718.2285209 1.1192304.3428857 1.7582541.3428857zm8.1524554 3.3977608h-4.0280192v-2.090705c-.469146.7836491-1.098361 1.4049337-1.8866014 1.8621841s-1.7903931.6857713-3.0052058.6857713c-1.0866741 0-2.0990527-.1907471-3.0371361-.5714065-.9255616-.372729-1.7599236-.9470572-2.4456949-1.6827066-.7154059-.7778056-1.2699081-1.6943934-1.6305328-2.6957113-.3948507-1.0568307-.5916499-2.2584956-.5916499-3.6100034 0-1.3508818.2189209-2.5531728.6555105-3.6102122.402155-1.0019439.9877527-1.9170708 1.7263238-2.69487649.6895278-.72375373 1.5163767-1.29662108 2.4300428-1.68270654.8756835-.37481595 1.8154364-.56911085 2.7654154-.57140649 1.2580125 0 2.2860433.20034705 3.0845098.60417158.7995099.40382452 1.4437509.96417018 1.9350186 1.68249784v-1.82941902h4.0280192zm-19.5342549 0h-4.0286453v-10.030083c0-.9589528-.1915819-1.7033673-.5753717-2.2378348-.3835812-.5344675-1.0234395-.80013608-1.9185317-.80013608s-1.6305329.33766828-2.2059046 1.01237868c-.575163.6747105-.8631618 1.6879239-.8631618 3.038597v9.0170782h-4.0286453v-9.9647615c0-.9798223-.2026427-1.7428107-.6070933-2.2868781-.4044507-.5440675-1.0547438-.81641428-1.9506708-.81641428-.7874056 0-1.4865334.33766828-2.0936267 1.01237868-.607928.6747105-.911579 1.6662197-.911579 2.9732755v9.0823997h-4.0278106v-16.20452872h4.0278106v2.15602645c.5960324-.93599638 1.3064297-1.60528075 2.1266004-2.00910527.7702927-.39109414 1.6171764-.59749335 2.4774165-.60417158 1.1720303 0 2.115331.24500775 2.8292761.73481455.7147798.4898068 1.2425691 1.17119547 1.5831591 2.04187037.575163-.95895282 1.3151949-1.66121097 2.2213479-2.10719186.8811096-.44097221 1.8490363-.66949306 2.8301108-.66949306 1.6626718 0 2.9302843.48458943 3.804507 1.45397699.8744314.96855278 1.3108124 2.25849562 1.3108124 3.87128943zm-42.0424115-16.20452872h4.0280192v9.11495612c0 1.1764128.2558599 2.0863223.767371 2.7284764.5113024.6413192 1.3314731.9633354 2.4619731.9633354 1.1302913 0 2.0253835-.4134245 2.6852766-1.2417344.6605192-.827475.9915092-1.8947405.9915092-3.2011702v-8.36386332h4.0280192v16.20452872h-4.0280192v-2.5479554c-.5121372.9798223-1.1993693 1.7263238-2.0625312 2.2378348-.8631619.5113024-1.8586363.767371-2.9889276.767371-.8312315 0-1.6038198-.1417038-2.3179736-.4244853-.7049712-.2769381-1.3425339-.705806-1.8703232-1.2580126-.5528327-.5887281-.9781528-1.2899428-1.2469517-2.0581485-.2990597-.8164143-.4474418-1.7686889-.4474418-2.8582846zm-11.63786803 12.80676792c.63902362 0 1.23568218-.1143648 1.79018443-.3428857.5380153-.21746 1.0234395-.5522065 1.4228814-.9804483.3948507-.4244854.7035103-.9197182.9270225-1.4867421.2241383-.5661891.3362074-1.1970736.3362074-1.8947405 0-.6747105-.1120691-1.3018385-.3362074-1.878671-.2116166-.5565892-.5263284-1.0672655-.9270225-1.5028116-.3994419-.4276157-.8848661-.7623623-1.4228814-.9798223-.55450225-.2285209-1.15116081-.3428856-1.79018443-.3428856-.6398584 0-1.23589088.1143647-1.79018439.3428856-.538224.21746-1.02364822.5522066-1.42288146.9798223-.4006941.4355461-.71624071.9462224-.9270225 1.5028116-.22413826.5768325-.3362074 1.2039605-.3362074 1.878671 0 .6976669.11206914 1.3285514.3362074 1.8947405.22351218.5670239.53217186 1.0622567.9270225 1.4867421.39485065.4253201.86754448.7519275 1.42288146.9804483.55429351.2285209 1.15032599.3428857 1.79018439.3428857zm-8.24887247-19.4718552h4.0286453v8.65791437c.60479766-.76904051 1.3767599-1.38427292 2.25411303-1.79686263.92556164-.44013742 1.93647947-.6636496 2.95699727-.65321486 1.0664307 0 2.0573138.19074709 2.9732755.57140649.9099095.3762768 1.7277846.95018763 2.3981124 1.68270654.7064321.78072741 1.2548821 1.69668909 1.6142547 2.69487649.3948506 1.0570394.5914412 2.2593304.5914412 3.6102122 0 1.3515078-.2026427 2.5531727-.6070934 3.6100034-.3702246 1.0004831-.9299442 1.9164448-1.6461849 2.6957113-.6820147.7333537-1.5111594 1.3070559-2.4300428 1.6827066-.9403789.3835811-1.9452446.5774586-2.95762333.5715439-1.25801253 0-2.30691282-.2399278-3.14920522-.7184651-.84250109-.478746-1.50740287-1.0570394-1.99804445-1.7317498v1.9928271h-4.0286453z"/>
        <g>
            <path d="m88.2880623 13.3006025c-.9174226 0-1.661211.7437884-1.661211 1.661211 0 .9174225.7437884 1.661211 1.661211 1.661211.9174225 0 1.6612109-.7437885 1.6612109-1.661211 0-.9174226-.7437884-1.661211-1.6612109-1.661211"/>
            <path d="m94.1130276 11.3592187c-.9174226 0-1.661211.7437884-1.661211 1.661211v3.8349765c0 .9174225.7437884 1.6612109 1.661211 1.6612109.9174225 0 1.661211-.7437884 1.661211-1.6612109v-3.8349765c0-.9174226-.7437885-1.661211-1.661211-1.661211"/>
            <path d="m98.2952723 4.65316463v20.68562437c0 .9176313.7437884 1.661211 1.661211 1.661211.9174227 0 1.6612107-.7435797 1.6612107-1.661211v-20.68562437c0-.91742255-.743788-1.66121098-1.6612107-1.66121098-.9174226 0-1.661211.74378843-1.661211 1.66121098z"/>
            <path d="m103.930033 7.96519356v14.06165004c0 .9174225.743789 1.6612109 1.661211 1.6612109.917423 0 1.661211-.7437884 1.661211-1.6612109v-14.06165004c0-.91742254-.743788-1.66121097-1.661211-1.66121097-.917422 0-1.661211.74378843-1.661211 1.66121097z"/>
        </g>
    </g>
</svg>