<svg width="127" height="24" viewBox="0 0 127 24" fill="none" xmlns="http://www.w3.org/2000/svg">
<g clip-path="url(#clip0_13198_28294)">
<mask id="mask0_13198_28294" style="mask-type:luminance" maskUnits="userSpaceOnUse" x="0" y="0" width="127" height="24">
<path d="M126.581 0.254883H0.479492V23.8481H126.581V0.254883Z" fill="white"/>
</mask>
<g mask="url(#mask0_13198_28294)">
<path d="M0.560547 0.29541H13.233V4.38961H5.04464V9.75105H13.1356V13.8452H5.04464V23.7882H0.560547V0.29541ZM17.0348 23.6908H12.2582L21.4214 0.29541H25.3206L34.2889 23.6908H29.4148L27.5627 18.8167H18.8869L17.0348 23.6908ZM23.2735 6.92409L20.4466 14.4301H26.003L23.2735 6.92409ZM45.4991 4.38961H41.1125V23.6908H36.5309V4.38961H32.1443V0.29541H45.4991V4.38961Z" fill="black"/>
<path d="M48.1309 23.6908V0.29541H54.4673C58.0742 0.29541 60.4136 0.977777 62.3633 2.63495C65.0928 4.97448 66.6524 8.3863 66.5547 11.9931C66.6524 15.7949 64.9951 19.4991 61.8759 21.8386C59.6338 23.4958 57.294 23.5933 54.5649 23.5933H48.1309V23.6908ZM54.857 21.4487C60.6084 21.4487 63.8252 18.1344 63.8252 11.9931C63.9229 9.16614 62.8506 6.53419 60.8033 4.58458C58.9512 2.92739 57.0019 2.63495 54.3696 2.63495H50.5679V21.3512H54.857V21.4487Z" fill="#616060"/>
<path d="M71.332 23.6908H69.0898V0.29541H75.231C77.3755 0.29541 79.1304 0.490373 80.7876 1.66014C82.6397 3.12235 83.8092 5.36442 83.8092 7.70393C83.8092 11.2133 81.4698 14.3326 78.2529 14.5276L83.8092 23.6908H81.0797L74.2563 12.383H76.4009C78.9351 12.578 81.0797 10.6283 81.2749 8.09387C81.2749 7.9964 81.2749 7.80143 81.2749 7.70393C81.3721 6.14425 80.69 4.68204 79.6177 3.70724C78.3506 2.53747 76.6934 2.53747 74.5488 2.53747H71.2344V23.6908H71.332Z" fill="#616060"/>
<path d="M104.28 11.9929C104.28 10.1408 103.597 8.38614 102.33 7.1189C101.063 5.85162 99.3079 5.07178 97.5535 5.07178C93.7517 5.16928 90.6321 8.28863 90.7298 12.0904C90.7298 13.845 91.5096 15.5997 92.6795 16.867C95.3113 19.4989 99.5032 19.5964 102.135 16.9644L102.233 16.867C103.597 15.5997 104.28 13.845 104.28 11.9929Z" fill="black"/>
<path d="M97.5542 23.6908C91.1206 23.6908 85.8564 18.4268 85.8564 11.9931C85.8564 5.55938 91.1206 0.29541 97.5542 0.29541C103.988 0.29541 109.252 5.55938 109.252 11.9931C109.252 18.4268 103.988 23.6908 97.5542 23.6908ZM97.5542 2.63495C92.3877 2.63495 88.1958 6.72912 88.1958 11.8956C88.1958 17.0621 92.2901 21.2538 97.4566 21.2538C102.623 21.2538 106.815 17.1596 106.815 11.9931C106.815 6.82662 102.623 2.63495 97.5542 2.63495Z" fill="#616060"/>
<path d="M122.898 1.27022C121.534 0.490373 119.682 0.29541 116.952 0.29541H111.688V23.6908H114.125V14.4301H117.342C119.877 14.4301 121.729 14.1377 123.191 13.2603C125.141 11.9931 126.311 9.84851 126.213 7.509C126.311 4.97448 125.043 2.63495 122.898 1.27022ZM117.732 12.0906H114.125V2.63495H117.537C121.534 2.63495 123.678 4.19464 123.678 7.60646C123.678 10.7259 121.631 12.0906 117.732 12.0906Z" fill="#616060"/>
</g>
</g>
<defs>
<clipPath id="clip0_13198_28294">
<rect width="126.102" height="24" fill="white" transform="translate(0.479492)"/>
</clipPath>
</defs>
</svg>
