<svg width="134" height="36" viewBox="0 0 134 36" fill="none" xmlns="http://www.w3.org/2000/svg">
<g clip-path="url(#clip0_13198_27260)">
<path d="M85.1673 0.51416L80.25 5.34868V30.7417L84.976 35.5H98.8869L103.612 30.7362V19.3891L93.1548 19.4197V26.1752L91.0652 26.1737V9.82866L93.1548 9.82976V16.8233H103.612V5.26458L98.848 0.51416H85.1673Z" fill="#231F20"/>
<path d="M5.55722 0.51416L0.640137 5.34868V30.7417L5.36587 35.5H19.2766L24.0021 30.7362V19.3891L13.5445 19.4197V26.1752L11.4549 26.1737V9.82866L13.5445 9.82976V16.8233H24.0021V5.26458L19.2381 0.51416H5.55722Z" fill="#231F20"/>
<path d="M36.5243 16.8334V9.90337L39.0261 9.91167V16.8421L36.5243 16.8334ZM25.9136 0.51416V35.5H36.6427V22.5537H38.7631V35.5H49.9234V21.4523L47.7122 19.3208L50.0374 17.0359V5.80522L44.6256 0.51416H25.9136Z" fill="#231F20"/>
<path d="M71.2832 0.5C71.8883 3.06427 80.1095 35.5 80.1095 35.5H70.2934L69.002 30.3131H62.7354L61.4169 35.5L51.5723 35.4849L60.4516 0.5H71.2832ZM65.8751 17.8964L64.6577 22.5365L67.0332 22.5231L65.8751 17.8964Z" fill="#231F20"/>
<path d="M120.665 0.5L115.956 9.82979V0.514199H105.406V35.5H115.956V26.1752L120.479 35.5H133.227L123.18 18.1476L133.36 0.5H120.665Z" fill="#231F20"/>
</g>
<defs>
<clipPath id="clip0_13198_27260">
<rect width="132.72" height="35" fill="white" transform="translate(0.640137 0.5)"/>
</clipPath>
</defs>
</svg>
