<svg xmlns:xlink="http://www.w3.org/1999/xlink" xmlns="http://www.w3.org/2000/svg" width="87" height="60" viewBox="0 0 80 55"><g fill="#202823"><path d="M14.6 41.1l-2.5 13.7h2.3l.4-3h2.6l.4 3h2.3l-2.5-13.7h-3zm.5 8.6l.9-5.9.9 5.9h-1.8zm4.7-6.6h2.3v11.7h2.4V43.1h2.2v-2h-6.9m8.1 2h2.3v11.7h2.4V43.1h2.2v-2h-6.9m9.5 0l-2.5 13.7h2.3l.4-3h2.6l.4 3h2.3l-2.5-13.7h-3zm.5 8.6l.9-5.9.9 5.9h-1.8zm9.6-8.8c-2.5 0-3.6 1.6-3.6 3.5v7.1c0 1.9 1.1 3.5 3.6 3.5 2.4 0 3.5-1.6 3.5-3.5v-1.6h-2.4v1.7c0 .9-.3 1.4-1.1 1.4-1 0-1.3-.5-1.3-1.5v-7c0-1 .3-1.5 1.3-1.5.6 0 1.1.5 1.1 1.7v1.1H51v-1c0-2.2-1.1-3.9-3.5-3.9zm12.3.2h-2.4l-2.4 5h-.1v-5h-2.4v13.7h2.4v-4.9l.9-1.5 1.9 6.4h2.4l-2.9-8.6m3.9 6.4h2.2v2.2h-2.2z"/><path d="M73.5 49.6l-12-23.8-22.6.1L25 0l-9 19.7-4.6-4.1L1.2 50.9 0 54.8h2.3l1.3-2.4 16.1-26.7 11.4 9.9 27.2-.9 13.8 17.9 1.6 2.2h2.4l-2.6-5.2zM60.2 27.9l6.4 12.7-6-8.8-19.5-1.6L40 28l20.2-.1zM25.1 4.7L36.5 26h-2.4l-9.3-12.8-5.6 9.3-1.6-1.4 7.5-16.4zM12.4 19.3l2.7 2.3-8.9 19.5 6.2-21.8zM9.9 37.9l6.8-14.8 1.4 1.2-8.2 13.6zm10.9-14l4.2-7L33.1 28h4.5l2.3 4.2 8.8.7-16.8.6-11.1-9.6z"/></g></svg>