<svg width="164" height="26" viewBox="0 0 164 26" fill="none" xmlns="http://www.w3.org/2000/svg">
<path fill-rule="evenodd" clip-rule="evenodd" d="M68.3265 5.24083H62.6834V0.900024H68.3265V5.24083ZM62.6834 7.35698H68.3265V24.5032H62.6834V7.35698ZM0.609863 7.35698H6.063V9.66304H6.17152C7.17534 7.95384 8.99305 6.8415 11.1092 6.8415C13.2253 6.8415 15.1516 7.54689 16.1554 9.66304C17.4576 7.84532 19.1668 6.8415 21.5 6.8415C26.9531 6.8415 27.55 10.9653 27.55 14.1938V24.476H21.907V14.3837C21.907 12.566 21.0117 11.4536 19.6009 11.4536C17.1863 11.4536 16.9693 13.2713 16.9693 16.0929V24.4489H11.272V14.6821C11.272 12.6745 10.6751 11.4536 9.15583 11.4536C7.14821 11.4536 6.22578 12.5659 6.22578 16.0929V24.4489H0.609863V7.35698ZM45.3473 24.5032H39.8942V22.1971H39.7857C38.7819 23.9063 36.5572 25.0186 34.5496 25.0186C29.6119 25.0186 28.2011 22.1971 28.2011 17.6664V7.38411H33.8442V17.3408C33.8442 19.6469 34.848 20.3523 36.6657 20.3523C37.8866 20.3523 39.6771 19.5384 39.6771 16.5269V7.35698H45.3202C45.3473 7.35698 45.3473 24.5032 45.3473 24.5032ZM50.9915 18.9144C50.9908 18.8875 50.9904 18.8604 50.9904 18.833H51.0446V18.9144H50.9915ZM50.9915 18.9144C51.0154 19.7662 51.4123 20.3647 51.8857 20.7592C52.4011 21.1662 53.1879 21.3561 54.0018 21.3561C55.1142 21.3561 56.6334 20.8406 56.6334 19.5384C56.6334 18.2985 55.084 17.9686 54.0692 17.7525L53.9789 17.7332L53.9204 17.7207C53.386 17.585 52.831 17.4674 52.274 17.3494C49.1549 16.6884 45.9713 16.0139 45.9713 12.0776C45.9713 7.95384 50.3935 6.8415 53.839 6.8415C57.5559 6.8415 61.4897 7.95384 61.7068 12.376H56.5792C56.5792 11.6707 56.2807 11.1552 55.8738 10.8568C55.3583 10.5583 54.7615 10.4498 54.0561 10.4498C53.1608 10.4498 51.6415 10.5583 51.6415 11.752C51.6415 13.0417 54.0544 13.5036 56.3684 13.9466L56.3685 13.9467C56.9265 14.0535 57.4787 14.1592 57.9899 14.2751C61.4083 14.9805 62.3307 17.5036 62.3307 18.9144C62.3307 23.5536 57.9899 25.0729 54.0561 25.0729C50.0137 25.0729 45.7814 23.7707 45.7 18.9144H50.9915ZM78.2018 11.0738C79.6126 11.0738 80.9148 12.1861 80.9148 13.5969C80.9148 13.5969 86.368 13.5969 86.368 13.5698C85.961 9.03904 82.1357 6.81438 77.9034 6.81438C72.3417 6.81438 68.9233 10.7482 68.9233 16.2014C68.9233 21.4375 72.7758 24.9644 77.9034 24.9644C82.5426 24.9644 86.0695 22.3599 86.585 17.7207H81.1319C80.8334 19.5384 79.8296 20.6507 77.9034 20.6507C75.5702 20.6507 74.5664 18.3446 74.5664 16.12C74.5664 13.7868 75.0819 11.0738 78.2018 11.0738ZM86.8835 7.4655H92.3366V10.4769H92.4451C93.259 8.25227 95.1581 7.13994 97.5727 7.13994C97.9797 7.13994 98.468 7.13994 98.8749 7.24846V12.376C98.1696 12.1861 97.4642 12.0776 96.7588 12.0776C93.9373 12.0776 92.5265 14.0038 92.5265 16.12V24.5846H86.8835V7.4655ZM98.8793 12.6202C98.8777 12.6472 98.8763 12.6744 98.8749 12.7016V12.6202H98.8793ZM98.8793 12.6202C99.0081 10.4405 100.007 8.97348 101.588 8.06236C103.107 7.16706 105.115 6.8415 107.041 6.8415C111.083 6.8415 114.99 7.7368 114.99 12.5931V20.0538C114.99 21.4646 114.99 23.0653 115.696 24.476H110.053C109.863 23.9606 109.754 23.4722 109.754 22.8754C108.343 24.3946 106.119 24.9915 104.111 24.9915C100.883 24.9915 98.2781 23.3908 98.2781 19.8639C98.2781 15.339 102.322 14.7856 105.947 14.2895C106.756 14.1788 107.544 14.0709 108.262 13.9224C109.266 13.7325 109.781 13.407 109.781 12.3218C109.781 11.0195 108.262 10.5041 107.068 10.5041C105.549 10.5041 104.545 11.2094 104.247 12.6202H98.8793ZM109.537 16.6355C109.646 20.1624 108.832 21.6816 106.119 21.6816C104.925 21.6816 103.813 21.0577 103.813 19.7554C103.813 18.3446 104.898 17.8292 106.119 17.5308C106.502 17.4349 106.907 17.3615 107.308 17.2889C108.157 17.1353 108.984 16.9854 109.537 16.6355ZM133.113 24.5846H127.796V22.5769H127.687C126.575 24.1776 124.974 25.1 122.939 25.1C117.595 25.1 115.289 20.4608 115.289 15.6316C115.289 11.2094 117.703 6.95003 122.532 6.95003C124.649 6.95003 126.249 7.76393 127.362 9.25609H127.47V2.20227H133.113V24.5846ZM120.932 15.8216C120.932 18.1276 121.827 20.7592 124.35 20.7592C127.063 20.7592 127.687 18.1276 127.687 15.9301C127.687 13.407 126.792 11.1823 124.35 11.1823C121.746 11.2908 120.932 13.7054 120.932 15.8216ZM136.667 8.06236C135.066 8.98478 134.063 10.4769 133.954 12.7016H133.981V12.6202H139.326C139.624 11.2094 140.628 10.5041 142.147 10.5041C143.341 10.5041 144.86 11.0195 144.86 12.3218C144.86 13.407 144.345 13.7325 143.341 13.9224C142.623 14.0709 141.835 14.1788 141.026 14.2895C137.401 14.7856 133.357 15.339 133.357 19.8639C133.357 23.3908 135.962 24.9915 139.19 24.9915C141.198 24.9915 143.422 24.3946 144.833 22.8754C144.833 23.4722 144.942 23.9606 145.132 24.476H150.775C150.069 23.0653 150.069 21.4646 150.069 20.0538V12.5931C150.069 7.7368 146.163 6.8415 142.12 6.8415C140.194 6.8415 138.186 7.16706 136.667 8.06236ZM144.616 16.6355C144.725 20.1624 143.911 21.6816 141.198 21.6816C139.896 21.6816 138.892 21.0577 138.892 19.7554C138.892 18.3446 139.977 17.8292 141.198 17.5308C141.581 17.4349 141.987 17.3615 142.388 17.2889C143.236 17.1353 144.064 16.9854 144.616 16.6355ZM150.883 7.4655H156.336V10.4769H156.445C157.259 8.25227 159.158 7.13994 161.572 7.13994C161.979 7.13994 162.983 7.13994 163.39 7.24846V12.376C162.685 12.1861 161.464 12.0776 160.677 12.0776C157.856 12.0776 156.445 14.0038 156.445 16.12V24.5846H150.802V7.43837H150.883V7.4655ZM157.72 19.05H163.255V24.5846H157.72V19.05Z" fill="black"/>
</svg>
