<svg width="147" height="26" viewBox="0 0 147 26" fill="none" xmlns="http://www.w3.org/2000/svg">
<path d="M0.728027 23.2246C2.62009 23.2246 3.37206 22.3513 3.37206 20.3137V5.66237C3.37206 3.64902 2.74137 2.7515 0.728027 2.7515V0.738159H11.5953C17.5383 0.738159 21.4437 3.3822 21.4437 8.06384C21.4437 12.3574 17.9021 15.3895 11.474 15.3895H9.70319V20.1924C9.70319 22.4726 10.8433 23.1033 13.9967 23.1033V25.1166H0.728027V23.2246ZM9.70319 2.63022V13.6187H10.722C13.7541 13.6187 15.4036 11.3386 15.4036 8.06384C15.4036 4.64357 13.7541 2.63022 10.6007 2.63022C10.5765 2.63022 9.70319 2.63022 9.70319 2.63022Z" fill="black"/>
<path d="M21.7106 23.2247C23.4814 23.2247 24.1121 22.4727 24.1121 20.5807V13.7644C24.1121 12.7456 23.3601 12.1149 22.3413 12.2362H21.7106V10.0773L28.4056 8.06394H30.0551V20.4351C30.0551 22.3272 30.6858 23.0791 32.4566 23.0791V25.0925H21.5894V23.2004H21.7106V23.2247ZM27.1443 0.980835C28.915 0.980835 30.419 2.50904 30.419 4.25556C30.419 6.02633 28.8908 7.53028 27.1443 7.53028C25.3735 7.53028 23.8695 6.00208 23.8695 4.25556C23.8453 2.50904 25.2279 0.980835 27.1443 0.980835Z" fill="black"/>
<path d="M34.0819 11.3382H31.8018V9.95554C34.4458 9.20356 37.7448 7.04467 38.7393 3.89124H40.0007V9.20356H44.1729V11.3625H40.0007V19.5856C40.0007 21.599 41.1408 22.2297 42.2809 22.2297C43.0328 22.2297 43.9304 21.9871 44.4398 21.599L45.0704 22.7391C44.0516 24.3886 41.6502 25.6499 39.2487 25.6499C35.7072 25.6499 34.0577 23.4911 34.0577 19.9738V11.3382H34.0819Z" fill="black"/>
<path d="M53.6584 8.06396C55.9386 8.06396 57.9519 8.69465 59.844 9.71345L57.6851 15.5352H56.3024C55.9143 11.9936 54.2891 10.611 52.5183 10.611C50.3594 10.611 49.098 12.503 49.098 15.0258C49.098 18.8099 51.7421 20.702 54.5316 20.702C56.6905 20.702 57.8064 19.8287 58.5826 18.1792L59.844 18.6886C59.092 22.594 57.3212 25.6262 52.5183 25.6262C48.1035 25.6262 44.9258 22.4727 44.9258 17.5485C45.0713 11.7268 48.4916 8.06396 53.6584 8.06396Z" fill="black"/>
<path d="M59.358 23.2245C61.1287 23.2245 61.7594 22.4725 61.7594 20.5805V5.92913C61.7594 4.91033 61.0075 4.40093 59.9887 4.40093H59.2367V2.12076L66.4411 0.349976H67.7024V11.6053C68.5757 9.20385 70.3465 8.06377 72.7479 8.06377C75.9014 8.06377 78.0603 9.83454 78.0603 13.4974V20.4349C78.0603 22.327 78.691 23.079 80.4617 23.079V25.0923H70.492V23.079C72.0202 23.079 72.0202 22.2057 72.0202 20.5562V13.6187C72.0202 12.0905 71.2683 11.3385 69.8613 11.3385C68.7212 11.3385 67.848 12.0905 67.5812 13.2305V20.5562C67.5812 22.2057 67.7024 23.079 69.1094 23.079V25.0923H59.1396V23.2003H59.358V23.2245Z" fill="black"/>
<path d="M81.4551 23.2247C83.2259 23.2247 83.8565 22.4727 83.8565 20.5806V11.3629H81.4551V9.98024C83.3471 9.98024 83.9778 9.47084 83.9778 8.08818C83.9778 4.81345 86.8887 0.37439 92.8317 0.37439C94.7238 0.37439 96.7371 1.00508 98.5079 1.75705L95.9851 8.06392L94.7238 7.82135C94.8451 4.40109 93.705 2.26645 91.6916 2.26645C90.0421 2.26645 89.1689 3.64911 89.1689 5.41988C89.1689 6.94809 89.557 8.20946 89.7996 9.20401H93.3411V11.3629H89.9208V20.4593C89.9208 22.3514 90.5515 23.1034 92.3223 23.1034V25.1167H81.4551V23.2247Z" fill="black"/>
<path d="M93.2212 16.772C93.2212 11.0958 97.2721 7.91809 101.93 7.91809C106.611 7.91809 110.638 11.0715 110.638 16.772C110.638 22.4724 106.587 25.6258 101.93 25.6258C97.2479 25.6258 93.2212 22.4724 93.2212 16.772ZM99.9162 16.772C99.9162 22.3269 100.426 23.9764 101.93 23.9764C103.433 23.9764 103.943 22.3269 103.943 16.772C103.943 11.2171 103.433 9.56758 101.93 9.56758C100.401 9.71312 99.9162 11.3384 99.9162 16.772Z" fill="black"/>
<path d="M111.025 23.2244C112.795 23.2244 113.426 22.4724 113.426 20.5803V14.0067C113.426 12.9878 112.674 12.3572 111.655 12.3572H110.903V10.1983L117.21 8.30621H118.981V10.9502C118.981 12.3329 118.86 14.3705 118.86 15.1225H118.981C119.49 10.077 121.771 7.91809 124.415 7.91809C124.924 7.91809 125.045 7.91809 125.433 8.03938V13.8611C123.274 13.473 119.49 13.6185 119.49 17.5239V20.4348C119.49 22.3269 120.121 23.0788 121.892 23.0788V25.0922H111.025V23.2244Z" fill="black"/>
<path d="M124.925 23.2245C126.696 23.2245 127.327 22.4725 127.327 20.5805V5.92913C127.327 4.91033 126.575 4.40093 125.556 4.40093H124.804V2.12076L132.13 0.349976H133.391V15.7533H133.634L136.545 14.3706C137.927 13.74 138.194 13.1093 138.194 12.2117C138.194 11.0717 137.321 10.441 135.914 10.441V8.42763H144.768V10.1984C142.876 12.4786 141.105 13.3518 139.092 14.3706L142.997 19.683C144.258 21.3325 145.01 23.1032 146.272 23.1032V25.1166H138.825L133.634 16.7721H133.391V20.9443C133.391 22.327 133.513 22.9577 134.895 22.9577V24.971H124.925C124.925 24.9953 124.925 23.2245 124.925 23.2245Z" fill="black"/>
</svg>
