<svg width="75" height="74" viewBox="0 0 75 74" fill="none" xmlns="http://www.w3.org/2000/svg">
<g clip-path="url(#clip0_13198_27272)">
<path d="M35.3542 0.0623474C27.6381 0.507217 20.251 3.35962 14.2696 8.20459C6.44511 14.5374 1.55528 23.6778 0.6618 33.6482C0.478619 35.7006 0.478619 38.2875 0.6618 40.3399C1.27864 47.1961 3.77589 53.6897 7.92552 59.2188C9.99659 61.9778 12.5088 64.49 15.279 66.5723C20.7931 70.7144 27.3054 73.2192 34.1579 73.836C36.2103 74.0192 38.7972 74.0192 40.8496 73.836C47.7021 73.2192 54.2144 70.7144 59.7286 66.5723C65.3249 62.3628 69.6578 56.5945 72.1139 50.0784C73.4522 46.5419 74.2223 42.8745 74.4392 39.0352C74.4878 38.1754 74.4878 35.8127 74.4392 34.9529C74.0765 28.5266 72.1326 22.489 68.6932 17.0945C65.4184 11.9542 60.8389 7.64009 55.5042 4.66806C50.5994 1.93529 45.2161 0.380112 39.5449 0.058609C38.7785 0.0137482 36.128 0.0174866 35.3542 0.0623474ZM39.8776 0.99321C44.1357 1.29976 47.8853 2.20071 51.7284 3.84187C59.6239 7.21391 66.1661 13.4533 69.9381 21.1993C72.0055 25.4536 73.1644 29.8163 73.512 34.6949C73.5756 35.5772 73.5756 38.4109 73.512 39.2932C73.2765 42.583 72.7158 45.4503 71.7251 48.4149C69.5381 54.9832 65.4745 60.7965 60.0276 65.1629C52.8536 70.9088 43.8329 73.679 34.6252 72.9575C23.6268 72.0939 13.6079 66.1872 7.45074 56.9384C4.17216 52.0112 2.19828 46.4784 1.60014 40.5081C1.43939 38.9343 1.39079 36.1641 1.49546 34.6949C1.80575 30.3771 2.69923 26.6349 4.3516 22.7694C7.72364 14.8739 13.9705 8.32422 21.709 4.55965C26.1502 2.40259 30.7372 1.22499 35.7654 0.955826C36.5206 0.914703 39.1337 0.937134 39.8776 0.99321Z" fill="black"/>
<path d="M42.5207 27.88C42.4459 28.0744 36.2439 44.1084 36.2065 44.2018C36.1916 44.2392 36.2888 44.2467 36.6664 44.2392L37.1486 44.228L38.0683 41.8541L38.9879 39.4802L42.6179 39.469L46.2441 39.4615L46.3787 39.8055C46.4535 39.9961 46.8647 41.069 47.2909 42.1906L48.0722 44.228L48.5657 44.2392C48.8386 44.243 49.0554 44.2355 49.0442 44.2205C49.0367 44.2056 47.5937 40.4896 45.8404 35.9661C44.0871 31.4427 42.6403 27.7267 42.6254 27.7117C42.6067 27.693 42.5618 27.7678 42.5207 27.88ZM44.2142 34.2652C45.0927 36.5381 45.8217 38.426 45.8292 38.4596C45.8479 38.5232 45.6759 38.5269 42.6067 38.5269C39.5337 38.5269 39.3655 38.5232 39.3879 38.4596C39.5412 38.0596 42.6067 30.123 42.6141 30.1267C42.6141 30.1305 43.3357 31.9922 44.2142 34.2652Z" fill="black"/>
<path d="M17.7126 30.8146C17.249 32.4371 16.1873 36.1157 15.3574 38.9942L13.8508 44.228L14.3181 44.2392C14.5723 44.2429 14.7929 44.2392 14.8041 44.228C14.8153 44.2168 15.8621 40.5681 17.1331 36.1157C18.4005 31.667 19.451 27.9921 19.4659 27.9472C19.4883 27.8762 19.4771 27.8725 19.0248 27.8725H18.5612L17.7126 30.8146Z" fill="black"/>
<path d="M59.8071 30.8146C59.3435 32.4371 58.2818 36.1157 57.4519 38.9942L55.9453 44.228L56.4126 44.2392C56.6668 44.2429 56.8874 44.2392 56.8986 44.228C56.9098 44.2168 57.9566 40.5681 59.2276 36.1157C60.4949 31.667 61.5454 27.9921 61.5604 27.9472C61.5828 27.8762 61.5716 27.8725 61.1193 27.8725H60.6557L59.8071 30.8146Z" fill="black"/>
<path d="M27.2231 36.2278V44.2467H27.6904H28.1577V36.2278V28.209H27.6904H27.2231V36.2278Z" fill="black"/>
</g>
<defs>
<clipPath id="clip0_13198_27272">
<rect x="0.5" width="74" height="74" rx="37" fill="white"/>
</clipPath>
</defs>
</svg>
