<svg width="320" height="28" viewBox="0 0 320 28" fill="none" xmlns="http://www.w3.org/2000/svg">
<g clip-path="url(#clip0_13416_2128)">
<path d="M12.3946 3.52637C10.1742 3.52445 7.99765 4.16279 6.11184 5.369C4.22603 6.57522 2.70636 8.30104 1.72515 10.3508C0.743939 12.4005 0.340443 14.6922 0.560414 16.9659C0.780386 19.2397 1.61503 21.4045 2.96969 23.2149L4.07137 22.0812C2.93373 20.4959 2.24594 18.6168 2.08455 16.6532C1.92317 14.6895 2.29453 12.7182 3.15728 10.9588C4.02004 9.19942 5.34034 7.72095 6.97122 6.688C8.60209 5.65504 10.4795 5.10812 12.3946 5.10812C14.3096 5.10812 16.187 5.65504 17.8179 6.688C19.4488 7.72095 20.7691 9.19942 21.6318 10.9588C22.4946 12.7182 22.8659 14.6895 22.7046 16.6532C22.5432 18.6168 21.8554 20.4959 20.7177 22.0812L21.82 23.2149C23.1747 21.4045 24.0094 19.2396 24.2293 16.9658C24.4492 14.692 24.0457 12.4003 23.0644 10.3505C22.0831 8.30074 20.5634 6.57493 18.6775 5.36876C16.7916 4.16259 14.615 3.52433 12.3946 3.52637ZM17.9746 19.2571C18.577 18.2379 18.9049 17.0722 18.9248 15.8795C18.9447 14.6868 18.6558 13.5102 18.0878 12.4704C17.5197 11.4306 16.693 10.5651 15.6925 9.96279C14.692 9.36046 13.5537 9.04302 12.3946 9.04302C11.2354 9.04302 10.0972 9.36046 9.09663 9.96279C8.09612 10.5651 7.2694 11.4306 6.70135 12.4704C6.1333 13.5102 5.84439 14.6868 5.86427 15.8795C5.88416 17.0722 6.21213 18.2379 6.81451 19.2571L7.94904 18.0896C7.56248 17.3071 7.37738 16.4358 7.41143 15.5588C7.44547 14.6817 7.69752 13.8283 8.14349 13.0802C8.58946 12.332 9.21444 11.714 9.9587 11.2853C10.703 10.8566 11.5416 10.6315 12.3946 10.6315C13.2475 10.6315 14.0861 10.8566 14.8304 11.2853C15.5747 11.714 16.1996 12.332 16.6456 13.0802C17.0916 13.8283 17.3436 14.6817 17.3777 15.5588C17.4117 16.4358 17.2266 17.3071 16.8401 18.0896L17.9746 19.2571ZM12.3946 14.6386L4.55742 22.7061L3.4635 23.8312C4.49188 25.0403 5.74196 26.0286 7.14213 26.7396C8.54229 27.4506 10.065 27.8703 11.6231 27.9747C13.1811 28.0791 14.7439 27.8662 16.2218 27.348C17.6998 26.8298 19.0638 26.0167 20.2359 24.9551C20.6234 24.6055 20.9882 24.23 21.328 23.8312L20.2341 22.7061L12.3946 14.6386ZM12.3946 26.4102C9.917 26.413 7.52147 25.4968 5.64715 23.8294L12.3946 16.8858L19.142 23.8294C17.2676 25.4968 14.8722 26.4133 12.3946 26.4108V26.4102Z" fill="#442671"/>
<path d="M45.1023 7.382H47.7421V24.0344H45.1023L44.8443 21.8788C44.1574 22.6473 43.3238 23.2616 42.3956 23.6832C41.4674 24.1049 40.4646 24.3249 39.45 24.3294C37.2403 24.3102 35.1274 23.3934 33.5715 21.7786C32.0156 20.1639 31.1426 17.9819 31.1426 15.7079C31.1426 13.4339 32.0156 11.2519 33.5715 9.63717C35.1274 8.02242 37.2403 7.10562 39.45 7.08643C40.4675 7.08981 41.473 7.3122 42.402 7.73931C43.331 8.16642 44.1629 8.78881 44.8443 9.56647L45.1023 7.382ZM44.873 15.7082C44.8533 14.6228 44.5224 13.5676 43.9218 12.6752C43.3212 11.7827 42.4778 11.0928 41.4974 10.6921C40.517 10.2915 39.4433 10.1979 38.4114 10.4231C37.3795 10.6484 36.4353 11.1824 35.6973 11.9582C34.9594 12.734 34.4608 13.7169 34.264 14.7834C34.0672 15.8499 34.181 16.9524 34.5912 17.9526C35.0015 18.9527 35.6897 19.8058 36.5696 20.4046C37.4495 21.0034 38.4817 21.3214 39.5365 21.3184C40.249 21.3258 40.9555 21.1849 41.6137 20.904C42.2718 20.6231 42.8679 20.2082 43.3661 19.6841C43.8644 19.16 44.2545 18.5375 44.5129 17.8543C44.7713 17.171 44.8928 16.441 44.87 15.7082H44.873Z" fill="#442671"/>
<path d="M49.5205 22.1739L50.9846 19.6933C52.4017 20.793 54.1158 21.4123 55.8899 21.4654C58.159 21.4654 59.2756 20.8749 59.2756 19.3688C59.2756 18.1288 58.2718 17.4203 55.9479 16.9773C51.9597 16.1784 50.2669 14.6422 50.2669 11.8396C50.2669 8.946 52.6195 7.08597 56.3205 7.08597C58.1994 7.05962 60.0513 7.54894 61.6855 8.50358L60.1927 10.9836C59.026 10.2606 57.6804 9.90158 56.3193 9.95007C54.4258 9.95007 53.2214 10.6586 53.2214 11.8396C53.2214 13.0796 53.938 13.5521 56.7211 14.1746C60.4513 15.0312 62.2588 16.6848 62.2588 19.3713C62.2588 22.4713 59.7628 24.3313 55.8888 24.3313C53.5929 24.3548 51.3539 23.5963 49.5205 22.1739Z" fill="#442671"/>
<path d="M64.3525 19.4575V0H67.3381V19.0439C67.3381 20.609 67.6821 21.4951 69.0023 21.4951C69.576 21.4784 70.1334 21.2941 70.6091 20.9636L71.6994 23.5026C70.8137 24.0685 69.7866 24.3557 68.7443 24.3291C65.9021 24.3291 64.3525 22.4396 64.3525 19.4575Z" fill="#442671"/>
<path d="M72.8742 2.6602C72.8684 2.25014 72.9813 1.84758 73.1985 1.5037C73.4156 1.15983 73.7273 0.890198 74.0938 0.729116C74.4602 0.568035 74.865 0.522779 75.2566 0.599106C75.6481 0.675433 76.0088 0.869885 76.2926 1.15774C76.5765 1.4456 76.7707 1.81384 76.8506 2.21562C76.9305 2.6174 76.8925 3.03456 76.7414 3.41403C76.5902 3.79351 76.3328 4.11813 76.0019 4.34663C75.671 4.57513 75.2815 4.69716 74.8829 4.69721C74.6209 4.69972 74.361 4.64897 74.1181 4.54786C73.8752 4.44675 73.6541 4.29728 73.4675 4.10802C73.2809 3.91877 73.1324 3.69345 73.0306 3.44499C72.9288 3.19654 72.8756 2.92984 72.8742 2.6602ZM73.3621 24.0367V7.38434H76.3477V24.0367H73.3621Z" fill="#442671"/>
<path d="M78.6416 15.708C78.6427 14.5611 78.8659 13.4259 79.2981 12.3687C79.7303 11.3116 80.3628 10.3536 81.1587 9.5508C81.9546 8.74798 82.898 8.1164 83.9337 7.69292C84.9695 7.26944 86.0768 7.06256 87.1911 7.08435C89.3025 7.03849 91.3455 7.85609 92.872 9.35791L90.8639 11.57C89.8546 10.6353 88.5489 10.111 87.1911 10.0953C86.4684 10.0843 85.7507 10.2213 85.0799 10.4983C84.4091 10.7753 83.7986 11.1867 83.2837 11.7088C82.7688 12.2308 82.36 12.853 82.0809 13.5392C81.8019 14.2253 81.6581 14.9617 81.6581 15.7055C81.6581 16.4493 81.8019 17.1857 82.0809 17.8718C82.36 18.558 82.7688 19.1801 83.2837 19.7022C83.7986 20.2242 84.4091 20.6357 85.0799 20.9127C85.7507 21.1897 86.4684 21.3267 87.1911 21.3157C88.5489 21.3 89.8546 20.7757 90.8639 19.8409L92.9013 22.0531C91.3531 23.5388 89.3079 24.3532 87.1911 24.3266C86.0772 24.3484 84.9702 24.1417 83.9348 23.7185C82.8994 23.2953 81.9563 22.6642 81.1604 21.8619C80.3646 21.0596 79.7319 20.1022 79.2995 19.0457C78.867 17.9891 78.6434 16.8544 78.6416 15.708Z" fill="#442671"/>
<path d="M109.112 16.5052H96.4307C96.746 19.4283 98.984 21.4069 102.083 21.4069C103.679 21.4295 105.221 20.8155 106.386 19.6937L108.28 21.8493C107.459 22.683 106.48 23.3336 105.404 23.7603C104.328 24.187 103.177 24.3807 102.025 24.3293C97.0612 24.3293 93.4756 20.7568 93.4756 15.8262C93.4464 14.6927 93.6374 13.5647 94.0375 12.5082C94.4376 11.4517 95.0387 10.4881 95.8055 9.67389C96.5723 8.85966 97.4894 8.21121 98.503 7.76658C99.5165 7.32195 100.606 7.09009 101.708 7.08459C102.698 7.04715 103.685 7.22022 104.607 7.59297C105.529 7.96573 106.366 8.53015 107.067 9.251C107.767 9.97185 108.316 10.8336 108.678 11.7825C109.04 12.7313 109.208 13.7468 109.172 14.7656C109.208 15.3461 109.188 15.9288 109.112 16.5052ZM106.215 13.9367C106.186 11.7516 104.206 10.0095 101.682 10.0095C100.54 9.99619 99.4257 10.3751 98.5163 11.0864C97.6069 11.7977 96.9539 12.8006 96.6606 13.9367H106.215Z" fill="#442671"/>
</g>
<path d="M115.658 6.41699C115.658 6.7946 115.613 7.14779 115.521 7.47656C115.43 7.80208 115.297 8.08529 115.121 8.32617C114.945 8.56706 114.727 8.75586 114.467 8.89258C114.21 9.0293 113.913 9.09766 113.578 9.09766C113.24 9.09766 112.945 9.03743 112.694 8.91699C112.447 8.79655 112.235 8.62402 112.06 8.39941L112.016 9H111.186V1.5H112.089V4.2832C112.261 4.06836 112.47 3.90397 112.714 3.79004C112.958 3.67611 113.243 3.61914 113.568 3.61914C113.907 3.61914 114.206 3.68587 114.467 3.81934C114.727 3.9528 114.945 4.13835 115.121 4.37598C115.297 4.61361 115.43 4.89844 115.521 5.23047C115.613 5.55924 115.658 5.92057 115.658 6.31445V6.41699ZM114.755 6.31445C114.755 6.05729 114.729 5.81315 114.677 5.58203C114.628 5.34766 114.548 5.14258 114.438 4.9668C114.327 4.78776 114.182 4.64616 114.003 4.54199C113.824 4.43783 113.604 4.38574 113.344 4.38574C113.188 4.38574 113.044 4.4069 112.914 4.44922C112.784 4.48828 112.667 4.54525 112.562 4.62012C112.462 4.69173 112.37 4.77799 112.289 4.87891C112.211 4.97656 112.144 5.08398 112.089 5.20117V7.51074C112.147 7.62793 112.216 7.73698 112.294 7.83789C112.375 7.93555 112.468 8.02181 112.572 8.09668C112.676 8.17155 112.794 8.23014 112.924 8.27246C113.054 8.31152 113.197 8.33105 113.354 8.33105C113.601 8.33105 113.812 8.2806 113.988 8.17969C114.167 8.07552 114.312 7.93555 114.423 7.75977C114.537 7.58398 114.62 7.38053 114.672 7.14941C114.727 6.91829 114.755 6.67415 114.755 6.41699V6.31445ZM119.521 9.09766C119.149 9.09766 118.808 9.03418 118.495 8.90723C118.186 8.78027 117.921 8.60286 117.699 8.375C117.478 8.14714 117.305 7.87695 117.182 7.56445C117.058 7.25195 116.996 6.91178 116.996 6.54395V6.33887C116.996 5.91243 117.064 5.53158 117.201 5.19629C117.338 4.85775 117.519 4.57292 117.743 4.3418C117.971 4.10742 118.228 3.92839 118.515 3.80469C118.804 3.68099 119.101 3.61914 119.403 3.61914C119.784 3.61914 120.116 3.68587 120.399 3.81934C120.686 3.94954 120.924 4.13184 121.112 4.36621C121.301 4.59733 121.441 4.87077 121.532 5.18652C121.627 5.50228 121.674 5.84408 121.674 6.21191V6.61719H117.899C117.909 6.85807 117.955 7.08431 118.036 7.2959C118.121 7.50749 118.235 7.69303 118.378 7.85254C118.524 8.00879 118.699 8.13249 118.9 8.22363C119.102 8.31478 119.325 8.36035 119.569 8.36035C119.892 8.36035 120.178 8.29525 120.429 8.16504C120.679 8.03483 120.888 7.8623 121.054 7.64746L121.605 8.07715C121.518 8.21061 121.407 8.33919 121.273 8.46289C121.143 8.58333 120.992 8.69076 120.819 8.78516C120.647 8.87956 120.451 8.95443 120.233 9.00977C120.015 9.06836 119.778 9.09766 119.521 9.09766ZM119.403 4.36133C119.221 4.36133 119.049 4.39551 118.886 4.46387C118.723 4.52897 118.576 4.62663 118.446 4.75684C118.316 4.88379 118.205 5.04167 118.114 5.23047C118.026 5.41602 117.965 5.63086 117.929 5.875H120.771V5.80664C120.761 5.63086 120.727 5.45671 120.668 5.28418C120.613 5.11165 120.53 4.95703 120.419 4.82031C120.308 4.68359 120.168 4.57292 119.999 4.48828C119.833 4.40365 119.634 4.36133 119.403 4.36133ZM125.331 2.4375V3.7168H127.343V4.41504H125.331V7.28613C125.331 7.49121 125.357 7.66048 125.409 7.79395C125.461 7.92741 125.533 8.03483 125.624 8.11621C125.715 8.19434 125.819 8.24967 125.937 8.28223C126.057 8.31478 126.184 8.33105 126.317 8.33105C126.415 8.33105 126.516 8.32617 126.62 8.31641C126.724 8.30339 126.825 8.28874 126.923 8.27246C127.024 8.25618 127.117 8.23991 127.201 8.22363C127.289 8.2041 127.361 8.18783 127.416 8.1748L127.543 8.81445C127.468 8.86003 127.377 8.90072 127.27 8.93652C127.162 8.96908 127.045 8.99674 126.918 9.01953C126.791 9.04557 126.656 9.0651 126.513 9.07812C126.373 9.09115 126.233 9.09766 126.093 9.09766C125.858 9.09766 125.639 9.0651 125.434 9C125.232 8.93164 125.056 8.82585 124.906 8.68262C124.757 8.53613 124.638 8.34896 124.55 8.12109C124.465 7.88997 124.423 7.61165 124.423 7.28613V4.41504H123.036V3.7168H124.423V2.4375H125.331ZM132.67 9C132.634 8.93164 132.605 8.84701 132.582 8.74609C132.562 8.64193 132.548 8.53451 132.538 8.42383C132.447 8.51497 132.344 8.60124 132.23 8.68262C132.12 8.764 131.996 8.83561 131.859 8.89746C131.726 8.95931 131.583 9.00814 131.43 9.04395C131.277 9.07975 131.114 9.09766 130.941 9.09766C130.661 9.09766 130.408 9.05697 130.18 8.97559C129.955 8.89421 129.763 8.78516 129.604 8.64844C129.447 8.50846 129.325 8.34408 129.237 8.15527C129.153 7.96322 129.11 7.75651 129.11 7.53516C129.11 7.24544 129.167 6.99154 129.281 6.77344C129.398 6.55534 129.563 6.37467 129.774 6.23145C129.986 6.08496 130.24 5.97591 130.536 5.9043C130.836 5.83268 131.169 5.79688 131.537 5.79688H132.523V5.38184C132.523 5.22233 132.494 5.0791 132.436 4.95215C132.377 4.8252 132.294 4.71777 132.187 4.62988C132.079 4.53874 131.947 4.46875 131.791 4.41992C131.638 4.37109 131.465 4.34668 131.273 4.34668C131.094 4.34668 130.933 4.36947 130.79 4.41504C130.65 4.46061 130.531 4.52083 130.434 4.5957C130.336 4.67057 130.259 4.76009 130.204 4.86426C130.152 4.96517 130.126 5.07096 130.126 5.18164H129.218C129.221 4.98958 129.27 4.80078 129.364 4.61523C129.462 4.42969 129.6 4.26367 129.779 4.11719C129.962 3.96745 130.181 3.84701 130.438 3.75586C130.699 3.66471 130.993 3.61914 131.322 3.61914C131.622 3.61914 131.9 3.65658 132.157 3.73145C132.414 3.80306 132.636 3.91374 132.821 4.06348C133.01 4.20996 133.158 4.39388 133.266 4.61523C133.373 4.83659 133.427 5.09538 133.427 5.3916V7.84766C133.427 8.02344 133.443 8.21061 133.476 8.40918C133.508 8.60449 133.554 8.77539 133.612 8.92188V9H132.67ZM131.073 8.31152C131.249 8.31152 131.413 8.28874 131.566 8.24316C131.719 8.19759 131.858 8.13737 131.981 8.0625C132.108 7.98763 132.217 7.90299 132.309 7.80859C132.4 7.71094 132.471 7.61003 132.523 7.50586V6.43652H131.684C131.156 6.43652 130.746 6.51465 130.453 6.6709C130.16 6.82715 130.014 7.07292 130.014 7.4082C130.014 7.53841 130.035 7.65885 130.077 7.76953C130.123 7.88021 130.189 7.97624 130.277 8.05762C130.365 8.13574 130.476 8.19759 130.609 8.24316C130.743 8.28874 130.897 8.31152 131.073 8.31152Z" fill="#AAA3B1"/>
<defs>
<clipPath id="clip0_13416_2128">
<rect width="108.666" height="28" fill="white" transform="translate(0.503906)"/>
</clipPath>
</defs>
</svg>
