<svg width="91" height="20" viewBox="0 0 91 20" fill="none" xmlns="http://www.w3.org/2000/svg">
<g clip-path="url(#clip0_13198_28325)">
<path fill-rule="evenodd" clip-rule="evenodd" d="M2.20847 15.2942C3.10509 16.6583 4.66108 17.2878 6.16357 17.2878C7.82494 17.2878 9.88141 16.2383 9.88141 14.1926C9.88141 9.9166 0.679498 12.5656 0.679498 5.32558C0.679498 3.14861 2.52465 0.131836 7.00776 0.131836C9.03827 0.131836 10.9893 0.55174 12.3864 2.25717L10.3305 4.11961C9.6971 3.14861 8.45782 2.49268 7.00776 2.49268C4.21303 2.49268 3.36884 4.17177 3.36884 5.32558C3.36884 10.0214 12.5718 7.21489 12.5718 13.9033C12.5718 17.4975 9.67115 19.6482 6.08519 19.6482C3.68554 19.6482 1.39129 18.8352 0.125 17.0776L2.20847 15.2942Z" fill="black"/>
<path fill-rule="evenodd" clip-rule="evenodd" d="M30.9894 9.89026C30.9894 5.82451 28.2643 2.49268 24.0618 2.49268C19.8577 2.49268 17.1332 5.82451 17.1332 9.89026C17.1332 13.956 19.8577 17.2878 24.0618 17.2878C28.2643 17.2878 30.9894 13.956 30.9894 9.89026ZM14.4868 9.89026C14.4868 4.38198 18.4564 0.131836 24.0618 0.131836C29.6662 0.131836 33.6357 4.38198 33.6357 9.89026C33.6357 15.3985 29.6662 19.6482 24.0618 19.6482C18.4564 19.6482 14.4868 15.3985 14.4868 9.89026Z" fill="black"/>
<path fill-rule="evenodd" clip-rule="evenodd" d="M49.3803 4.61749C48.3499 3.25346 46.6502 2.49268 44.9763 2.49268C40.8807 2.49268 38.1775 5.82451 38.1775 10.0478C38.1775 13.956 40.726 17.2878 44.9763 17.2878C47.0624 17.2878 48.6587 16.3432 49.7408 14.7953L51.8269 16.3954C51.2853 17.1561 49.0963 19.6482 44.9246 19.6482C39.1297 19.6482 35.5503 14.7168 35.5503 10.0478C35.5503 4.27714 39.4391 0.131836 45.0534 0.131836C47.4483 0.131836 49.972 1.04962 51.44 3.01743L49.3803 4.61749Z" fill="#91918F"/>
<path fill-rule="evenodd" clip-rule="evenodd" d="M65.3273 12.8655L61.9067 4.35477H61.8547L58.382 12.8655H65.3273ZM60.8694 1.10742H63.1241L70.9762 19.6479H68.0739L66.234 15.0651H57.5008L55.6869 19.6479H52.7847L60.8694 1.10742Z" fill="black"/>
<path fill-rule="evenodd" clip-rule="evenodd" d="M73.8486 1.10742H77.189L87.5276 16.348H87.5792V1.10742H90.1252V19.6479H86.8908L76.4463 4.40684H76.3936V19.6479H73.8486V1.10742Z" fill="black"/>
</g>
<defs>
<clipPath id="clip0_13198_28325">
<rect width="90" height="20" fill="white" transform="translate(0.125)"/>
</clipPath>
</defs>
</svg>
