<svg width="104" height="37" viewBox="0 0 104 37" fill="none" xmlns="http://www.w3.org/2000/svg">
<path d="M10.9352 10.9006L13.3652 9.51535C14.0403 10.8045 15.1395 11.5163 16.2968 11.5163C17.3576 11.5163 18.0132 10.9583 18.0132 10.1696C18.0132 7.86081 11.4753 8.95757 11.4753 4.30162C11.4753 1.66579 13.5582 0.242188 16.2583 0.242188C18.5149 0.242188 20.2507 1.22329 21.1956 3.12813L18.8041 4.59029C18.3218 3.62837 17.5118 2.93575 16.3931 2.93575C15.371 2.93575 14.7538 3.45517 14.7538 4.16715C14.7538 6.32193 21.2917 5.36001 21.2917 10.0545C21.2917 12.6903 19.2282 14.2102 16.3353 14.2102C13.6159 14.2102 11.7451 12.8442 10.9351 10.901L10.9352 10.9006Z" fill="black"/>
<path d="M22.2749 8.70733V0.492188H25.4959V8.51514C25.4959 10.189 26.4215 11.2087 27.9452 11.2087C29.4494 11.2087 30.4333 10.1505 30.4333 8.51514V0.492188H33.6541V8.70752C33.6541 11.9013 31.3975 14.2101 27.9454 14.2101C24.4739 14.2101 22.2753 11.9399 22.2753 8.70752L22.2749 8.70733Z" fill="black"/>
<path d="M40.076 0.492188C42.9497 0.492188 44.9553 2.51231 44.9553 5.05204C44.9553 7.59177 42.9495 9.65026 40.076 9.65026H38.3209V13.9598H35.1001V0.492188H40.076ZM39.7287 6.99506C40.8668 6.99506 41.7345 6.20634 41.7345 5.09022C41.7345 3.99365 40.8668 3.20474 39.7287 3.20474H38.3209V6.99488L39.7287 6.99506Z" fill="black"/>
<path d="M51.0296 0.492188C53.9033 0.492188 55.9089 2.51231 55.9089 5.05204C55.9089 7.59177 53.9031 9.65026 51.0296 9.65026H49.2745V13.9598H46.0537V0.492188H51.0296ZM50.6823 6.99506C51.8204 6.99506 52.6881 6.20634 52.6881 5.09022C52.6881 3.99365 51.8204 3.20474 50.6823 3.20474H49.2745V6.99488L50.6823 6.99506Z" fill="black"/>
<path d="M56.5063 7.22611C56.5063 3.26278 59.5729 0.242188 63.6809 0.242188C67.7888 0.242188 70.8554 3.26278 70.8554 7.22611C70.8554 11.1894 67.8082 14.21 63.6809 14.21C59.5535 14.21 56.5063 11.1701 56.5063 7.22611ZM67.6154 7.22611C67.6154 4.97506 65.8989 3.24341 63.681 3.24341C61.4632 3.24341 59.7467 4.97506 59.7467 7.22611C59.7467 9.4578 61.4634 11.2086 63.681 11.2086C65.8987 11.2086 67.6154 9.4578 67.6154 7.22611Z" fill="black"/>
<path d="M79.4949 13.9598L76.2935 9.38077H75.1749V13.9598H71.9541V0.492188H77.2578C80.1121 0.492188 82.2144 2.33911 82.2144 4.80174C82.2144 6.61029 81.1344 8.16855 79.4951 8.9189L83.1981 13.9596H79.4951L79.4949 13.9598ZM75.1747 3.30122V6.72576H77.2576C78.2605 6.72576 79.0511 6.03314 79.0511 4.99431C79.0511 4.03239 78.2605 3.30122 77.2576 3.30122H75.1747Z" fill="black"/>
<path d="M86.3606 13.9598V3.3204H82.7539V0.492188H93.1878V3.3204H89.5812V13.9598H86.3604H86.3606Z" fill="black"/>
<path d="M4.57151 35.992V25.3526H0.964844V22.5244H11.3988V25.3526H7.79211V35.992H4.57151Z" fill="black"/>
<path d="M20.8098 22.5249H24.0307V35.9925H20.8098V30.4707H15.7183V35.9925H12.4976V22.5249H15.7183V27.6425H20.8098V22.5249Z" fill="black"/>
<path d="M25.438 35.992V22.5244H33.7888V25.3526H28.6588V27.7767H33.5573V30.5855H28.6588V33.1638H33.9048V35.992H25.4382H25.438Z" fill="black"/>
<path d="M38.5329 32.933L40.9629 31.5478C41.6379 32.8367 42.7372 33.5487 43.8945 33.5487C44.9552 33.5487 45.6109 32.9907 45.6109 32.2018C45.6109 29.8932 39.073 30.9898 39.073 26.3338C39.073 23.698 41.1559 22.2744 43.856 22.2744C46.1125 22.2744 47.8484 23.2555 48.7932 25.1604L46.4017 26.6225C45.9195 25.6604 45.1094 24.968 43.9908 24.968C42.9687 24.968 42.3515 25.4874 42.3515 26.1994C42.3515 28.3542 48.8894 27.3922 48.8894 32.0866C48.8894 34.7224 46.8257 36.2423 43.9329 36.2423C41.2136 36.2423 39.3428 34.8762 38.5327 32.933H38.5329Z" fill="black"/>
<path d="M49.4868 29.2583C49.4868 25.295 52.5534 22.2744 56.6613 22.2744C60.7693 22.2744 63.8358 25.295 63.8358 29.2583C63.8358 33.2217 60.7887 36.2423 56.6613 36.2423C52.534 36.2423 49.4868 33.2025 49.4868 29.2583ZM60.5956 29.2583C60.5956 27.0073 58.8792 25.2756 56.6613 25.2756C54.4434 25.2756 52.727 27.0073 52.727 29.2583C52.727 31.49 54.4436 33.2409 56.6613 33.2409C58.879 33.2409 60.5956 31.4902 60.5956 29.2583Z" fill="black"/>
<path d="M64.9536 30.7397V22.5244H68.1746V30.5474C68.1746 32.2211 69.1002 33.2407 70.624 33.2407C72.1281 33.2407 73.112 32.1827 73.112 30.5474V22.5244H76.3328V30.7397C76.3328 33.9334 74.0762 36.2421 70.6242 36.2421C67.1526 36.2421 64.954 33.9719 64.954 30.7397H64.9536Z" fill="black"/>
<path d="M86.7075 22.5249H89.8704V35.9925H87.4984L80.9795 28.162V35.9925H77.7974V22.5249H80.1889L86.7075 30.3361V22.5249Z" fill="black"/>
<path d="M91.3745 35.992V22.5244H96.0802C100.169 22.5244 103.158 25.2949 103.158 29.2582C103.158 33.2216 100.169 35.992 96.0802 35.992H91.3745ZM94.5951 33.1061H96.1381C98.2595 33.1061 99.918 31.5285 99.918 29.2582C99.918 26.988 98.2595 25.3912 96.1381 25.3912H94.5951V33.1061Z" fill="black"/>
<path d="M103.158 16.9385H0.964844V19.5458H103.158V16.9385Z" fill="black"/>
</svg>
