<svg width="35" height="53" viewBox="0 0 35 53" fill="none" xmlns="http://www.w3.org/2000/svg">
<path d="M34.2935 19.4263L34.2935 0.594949" stroke="white" stroke-miterlimit="10"/>
<path d="M34.3994 15.2416L27.8051 17.334L15.2509 17.334C14.0953 17.334 13.1585 16.3972 13.1585 15.2416L13.1585 15.2416C13.1585 14.086 14.0953 13.1492 15.2509 13.1492L25.7127 13.1492" stroke="white" stroke-miterlimit="10"/>
<path d="M34.0776 4.77931L29.8929 8.96405L13.154 8.96404L1.32144 16.7321C0.864156 17.1132 0.599758 17.6777 0.599758 18.2729L0.599758 18.273C0.599758 19.764 2.16885 20.7337 3.50245 20.0669L13.154 15.2412" stroke="white" stroke-miterlimit="10"/>
<path d="M21.6914 26.5C21.6927 28.0395 21.1497 29.5279 20.162 30.6926L13.3062 26.5L20.162 22.3074C21.1497 23.472 21.6927 24.9605 21.6914 26.5Z" stroke="white" stroke-miterlimit="10"/>
<path d="M0.709961 33.5737L0.709961 52.4051" stroke="white" stroke-miterlimit="10"/>
<path d="M0.604004 37.7584L7.19832 35.666H19.7525C20.9081 35.666 21.8449 36.6028 21.8449 37.7584V37.7584C21.8449 38.914 20.9081 39.8508 19.7525 39.8508H9.29068" stroke="white" stroke-miterlimit="10"/>
<path d="M0.914551 48.2209L5.09929 44.0362H21.8382L33.6707 36.2681C34.128 35.8871 34.3924 35.3226 34.3924 34.7273V34.7273C34.3924 33.2363 32.8233 32.2665 31.4897 32.9333L21.8382 37.7591" stroke="white" stroke-miterlimit="10"/>
</svg>
