<svg width="41" height="41" viewBox="0 0 41 41" fill="none" xmlns="http://www.w3.org/2000/svg">
<g clip-path="url(#clip0_13754_1232)">
<path d="M11.0194 19.9634C16.2555 19.9634 20.5002 15.7231 20.5002 10.4925C20.5002 5.26196 16.2555 1.02173 11.0194 1.02173C5.78327 1.02173 1.53857 5.26196 1.53857 10.4925C1.53857 15.7231 5.78327 19.9634 11.0194 19.9634Z" stroke="white" stroke-miterlimit="10"/>
<path d="M29.9808 39.4416C35.2169 39.4416 39.4616 35.2014 39.4616 29.9708C39.4616 24.7402 35.2169 20.5 29.9808 20.5C24.7447 20.5 20.5 24.7402 20.5 29.9708C20.5 35.2014 24.7447 39.4416 29.9808 39.4416Z" stroke="white" stroke-miterlimit="10"/>
<path d="M35.1085 5.89136L5.89111 35.1087" stroke="white" stroke-miterlimit="10"/>
</g>
<defs>
<clipPath id="clip0_13754_1232">
<rect width="40" height="40" fill="white" transform="translate(0.5 0.5)"/>
</clipPath>
</defs>
</svg>
