<svg width="43" height="42" viewBox="0 0 43 42" fill="none" xmlns="http://www.w3.org/2000/svg">
<path d="M2.58649 26.1905C2.20363 24.703 2 23.1436 2 21.5366C2 12.3033 8.72215 4.64005 17.5395 3.17383" stroke="white" stroke-miterlimit="10" stroke-linecap="round"/>
<mask id="path-2-inside-1_13754_1247" fill="white">
<path d="M15.8232 6.45579L15.2578 6.0453L17.283 3.26214L14.3589 1.44543L14.7282 0.852295L18.2889 3.06556L15.8232 6.45579Z"/>
</mask>
<path d="M15.8232 6.45579L15.2578 6.0453L17.283 3.26214L14.3589 1.44543L14.7282 0.852295L18.2889 3.06556L15.8232 6.45579Z" fill="#442671"/>
<path d="M15.8232 6.45579L15.2357 7.26501L16.0442 7.852L16.6319 7.04398L15.8232 6.45579ZM15.2578 6.0453L14.4492 5.45692L13.8602 6.26639L14.6703 6.85452L15.2578 6.0453ZM17.283 3.26214L18.0915 3.85052L18.7246 2.98054L17.8107 2.41274L17.283 3.26214ZM14.3589 1.44543L13.51 0.916894L12.9809 1.7666L13.8312 2.29484L14.3589 1.44543ZM14.7282 0.852295L15.2561 0.00298959L14.4074 -0.52452L13.8793 0.323762L14.7282 0.852295ZM18.2889 3.06556L19.0977 3.65375L19.7302 2.78399L18.8168 2.21625L18.2889 3.06556ZM16.4107 5.64656L15.8453 5.23607L14.6703 6.85452L15.2357 7.26501L16.4107 5.64656ZM16.0663 6.63368L18.0915 3.85052L16.4744 2.67377L14.4492 5.45692L16.0663 6.63368ZM17.8107 2.41274L14.8866 0.596018L13.8312 2.29484L16.7552 4.11155L17.8107 2.41274ZM15.2078 1.97396L15.5771 1.38083L13.8793 0.323762L13.51 0.916894L15.2078 1.97396ZM14.2003 1.7016L17.761 3.91486L18.8168 2.21625L15.2561 0.00298959L14.2003 1.7016ZM17.4802 2.47736L15.0144 5.86759L16.6319 7.04398L19.0977 3.65375L17.4802 2.47736Z" fill="white" mask="url(#path-2-inside-1_13754_1247)"/>
<path d="M36.741 30.8445C33.5223 36.4087 27.5062 40.1523 20.6158 40.1523C13.9961 40.1523 8.18343 36.6971 4.88281 31.4918" stroke="white" stroke-miterlimit="10" stroke-linecap="round"/>
<mask id="path-5-inside-2_13754_1247" fill="white">
<path d="M8.57553 31.7886L8.41869 32.4695L5.06537 31.6931L4.53598 35.0947L3.8457 34.9866L4.49126 30.844L8.57553 31.7886Z"/>
</mask>
<path d="M8.57553 31.7886L8.41869 32.4695L5.06537 31.6931L4.53598 35.0947L3.8457 34.9866L4.49126 30.844L8.57553 31.7886Z" fill="#442671"/>
<path d="M8.57553 31.7886L9.55001 32.0131L9.7743 31.0395L8.80087 30.8144L8.57553 31.7886ZM8.41869 32.4695L8.19314 33.4437L9.16844 33.6695L9.39317 32.694L8.41869 32.4695ZM5.06537 31.6931L5.29092 30.7189L4.24273 30.4762L4.07727 31.5394L5.06537 31.6931ZM4.53598 35.0947L4.38129 36.0826L5.37016 36.2375L5.52409 35.2484L4.53598 35.0947ZM3.8457 34.9866L2.85763 34.8326L2.70376 35.82L3.69101 35.9745L3.8457 34.9866ZM4.49126 30.844L4.7166 29.8697L3.66878 29.6274L3.50319 30.69L4.49126 30.844ZM7.60106 31.5642L7.44421 32.245L9.39317 32.694L9.55001 32.0131L7.60106 31.5642ZM8.64424 31.4953L5.29092 30.7189L4.83982 32.6674L8.19314 33.4437L8.64424 31.4953ZM4.07727 31.5394L3.54788 34.9409L5.52409 35.2484L6.05348 31.8469L4.07727 31.5394ZM4.69067 34.1067L4.0004 33.9986L3.69101 35.9745L4.38129 36.0826L4.69067 34.1067ZM4.83378 35.1405L5.47933 30.998L3.50319 30.69L2.85763 34.8326L4.83378 35.1405ZM4.26592 31.8183L8.35019 32.7629L8.80087 30.8144L4.7166 29.8697L4.26592 31.8183Z" fill="white" mask="url(#path-5-inside-2_13754_1247)"/>
<path d="M22.9429 3.06494C32.1258 4.21005 39.2316 12.0435 39.2316 21.5366C39.2316 22.8804 39.0892 24.1909 38.8187 25.454" stroke="white" stroke-miterlimit="10" stroke-linecap="round"/>
<mask id="path-8-inside-3_13754_1247" fill="white">
<path d="M36.3882 22.6573L36.9768 22.2808L38.8284 25.1823L41.5873 23.1233L42.0046 23.6837L38.6441 26.1906L36.3882 22.6573Z"/>
</mask>
<path d="M36.3882 22.6573L36.9768 22.2808L38.8284 25.1823L41.5873 23.1233L42.0046 23.6837L38.6441 26.1906L36.3882 22.6573Z" fill="#442671"/>
<path d="M36.3882 22.6573L35.8493 21.8149L35.0077 22.3533L35.5453 23.1954L36.3882 22.6573ZM36.9768 22.2808L37.8197 21.7428L37.2812 20.8989L36.4379 21.4384L36.9768 22.2808ZM38.8284 25.1823L37.9854 25.7202L38.5642 26.6272L39.4265 25.9837L38.8284 25.1823ZM41.5873 23.1233L42.3893 22.526L41.7914 21.7233L40.9892 22.3219L41.5873 23.1233ZM42.0046 23.6837L42.6026 24.4852L43.4035 23.8878L42.8066 23.0864L42.0046 23.6837ZM38.6441 26.1906L37.8013 26.7287L38.38 27.6352L39.2421 26.9921L38.6441 26.1906ZM36.9271 23.4997L37.5156 23.1231L36.4379 21.4384L35.8493 21.8149L36.9271 23.4997ZM36.1338 22.8187L37.9854 25.7202L39.6714 24.6443L37.8197 21.7428L36.1338 22.8187ZM39.4265 25.9837L42.1854 23.9248L40.9892 22.3219L38.2303 24.3809L39.4265 25.9837ZM40.7853 23.7207L41.2026 24.281L42.8066 23.0864L42.3893 22.526L40.7853 23.7207ZM41.4067 22.8822L38.0462 25.389L39.2421 26.9921L42.6026 24.4852L41.4067 22.8822ZM39.487 25.6524L37.231 22.1191L35.5453 23.1954L37.8013 26.7287L39.487 25.6524Z" fill="white" mask="url(#path-8-inside-3_13754_1247)"/>
</svg>
