<svg width="34" height="35" viewBox="0 0 34 35" fill="none" xmlns="http://www.w3.org/2000/svg">
<path id="Vector" d="M16.9996 0.500007C13.8257 0.497334 10.7145 1.38413 8.01892 3.05983C5.32329 4.73552 3.15104 7.13307 1.74847 9.98062C0.3459 12.8282 -0.230867 16.0118 0.083566 19.1705C0.397999 22.3292 1.59106 25.3366 3.52745 27.8517L5.10221 26.2767C3.47605 24.0744 2.4929 21.464 2.26221 18.736C2.03152 16.008 2.56235 13.2694 3.7956 10.8253C5.02884 8.38112 6.91612 6.3272 9.24733 4.89219C11.5785 3.45719 14.2622 2.6974 16.9996 2.6974C19.7369 2.6974 22.4206 3.45719 24.7518 4.89219C27.083 6.3272 28.9703 8.38112 30.2036 10.8253C31.4368 13.2694 31.9676 16.008 31.7369 18.736C31.5063 21.464 30.5231 24.0744 28.8969 26.2767L30.4726 27.8517C32.409 25.3366 33.6021 22.3291 33.9165 19.1703C34.2309 16.0115 33.654 12.8278 32.2513 9.98023C30.8487 7.13265 28.6763 4.73512 25.9805 3.05949C23.2848 1.38386 20.1735 0.497174 16.9996 0.500007ZM24.9758 22.3534C25.8369 20.9376 26.3057 19.3181 26.3341 17.6612C26.3625 16.0043 25.9496 14.3697 25.1376 12.9252C24.3256 11.4807 23.1439 10.2784 21.7137 9.4416C20.2835 8.60484 18.6565 8.16384 16.9996 8.16384C15.3427 8.16384 13.7156 8.60484 12.2854 9.4416C10.8553 10.2784 9.67356 11.4807 8.86157 12.9252C8.04959 14.3697 7.6366 16.0043 7.66503 17.6612C7.69346 19.3181 8.16227 20.9376 9.02333 22.3534L10.645 20.7314C10.0925 19.6445 9.82791 18.434 9.87657 17.2156C9.92524 15.9972 10.2855 14.8117 10.923 13.7723C11.5605 12.7329 12.4538 11.8744 13.5177 11.2788C14.5816 10.6833 15.7804 10.3705 16.9996 10.3705C18.2188 10.3705 19.4176 10.6833 20.4814 11.2788C21.5453 11.8744 22.4387 12.7329 23.0761 13.7723C23.7136 14.8117 24.0739 15.9972 24.1226 17.2156C24.1713 18.434 23.9067 19.6445 23.3541 20.7314L24.9758 22.3534ZM16.9996 15.9374L5.79698 27.1449L4.23331 28.7079C5.7033 30.3875 7.4902 31.7605 9.49163 32.7483C11.4931 33.736 13.6697 34.3191 15.8968 34.4641C18.1239 34.6092 20.3578 34.3133 22.4704 33.5935C24.583 32.8736 26.5328 31.744 28.2081 30.2692C28.7621 29.7835 29.2836 29.2619 29.7692 28.7079L28.2056 27.1449L16.9996 15.9374ZM16.9996 32.2907C13.4581 32.2946 10.0339 31.0217 7.35467 28.7054L16.9996 19.0591L26.6445 28.7054C23.9653 31.0218 20.5411 32.295 16.9996 32.2915V32.2907Z" fill="#D6BBFE"/>
</svg>
