<svg width="47" height="41" viewBox="0 0 47 41" fill="none" xmlns="http://www.w3.org/2000/svg">
<path d="M1.83484 16.8032V40.9999" stroke="white" stroke-miterlimit="10"/>
<path d="M1.69629 22.1802L10.1694 19.4917H26.3006C27.0136 19.4917 27.6975 19.775 28.2017 20.2791C28.7059 20.7833 28.9891 21.4672 28.9891 22.1802C28.9891 22.8933 28.7059 23.5771 28.2017 24.0813C27.6975 24.5855 27.0136 24.8687 26.3006 24.8687H12.858" stroke="white" stroke-miterlimit="10"/>
<path d="M2.10376 35.623L7.48081 30.246H28.989L44.1929 20.2646C44.4831 20.0227 44.7166 19.72 44.8768 19.3778C45.0371 19.0357 45.1201 18.6625 45.1202 18.2847V18.2847C45.1202 17.8454 45.0079 17.4134 44.7939 17.0297C44.58 16.646 44.2716 16.3234 43.8979 16.0924C43.5242 15.8615 43.0976 15.7299 42.6588 15.7101C42.2199 15.6904 41.7833 15.7831 41.3904 15.9796L28.989 22.1804" stroke="white" stroke-miterlimit="10"/>
<path d="M23.6119 11.4262C26.5816 11.4262 28.989 9.01884 28.989 6.04917C28.989 3.07951 26.5816 0.672119 23.6119 0.672119C20.6422 0.672119 18.2349 3.07951 18.2349 6.04917C18.2349 9.01884 20.6422 11.4262 23.6119 11.4262Z" stroke="white" stroke-miterlimit="10"/>
</svg>
